<?xml version="1.0" ?>
<svg xmlns="http://www.w3.org/2000/svg" version="1.1" width="640" height="360">
  <defs/>
  <g>
    <path d="M 288.3688659667969 241.9538116455078 C 296.7848815917969 255.74273681640625 293.9821472167969 249.35992431640625 304.152099609375 257.8863830566406" stroke-width="3.0580356121063232" fill="none" stroke="rgb(0, 0, 0)" stroke-opacity="1.0" stroke-linecap="round" stroke-linejoin="round"/>
    <path d="M 292.84368896484375 215.1386260986328 C 314.4276123046875 214.2757568359375 328.096923828125 214.64828491210938 316.8697509765625 220.59983825683594" stroke-width="3.0580356121063232" fill="none" stroke="rgb(0, 0, 0)" stroke-opacity="1.0" stroke-linecap="round" stroke-linejoin="round"/>
    <path d="M 237.7301788330078 241.07945251464844 C 251.94461059570312 223.18011474609375 255.62564086914062 224.74472045898438 264.64093017578125 205.80105590820312" stroke-width="3.0580356121063232" fill="none" stroke="rgb(0, 0, 0)" stroke-opacity="1.0" stroke-linecap="round" stroke-linejoin="round"/>
    <path d="M 235.15402221679688 243.53054809570312 C 236.5203857421875 234.2908935546875 241.44650268554688 234.41903686523438 241.37689208984375 255.20272827148438" stroke-width="3.0580356121063232" fill="none" stroke="rgb(0, 0, 0)" stroke-opacity="1.0" stroke-linecap="round" stroke-linejoin="round"/>
    <path d="M 263.4949951171875 207.5435791015625 C 275.1716613769531 190.2975616455078 273.064697265625 189.48963928222656 284.8519287109375 176.31199645996094" stroke-width="3.0580356121063232" fill="none" stroke="rgb(0, 0, 0)" stroke-opacity="1.0" stroke-linecap="round" stroke-linejoin="round"/>
    <path d="M 244.12786865234375 240.57656860351562 C 254.74871826171875 235.4135284423828 252.87255859375 234.61953735351562 263.3876037597656 222.71571350097656" stroke-width="3.0580356121063232" fill="none" stroke="rgb(0, 0, 0)" stroke-opacity="1.0" stroke-linecap="round" stroke-linejoin="round"/>
    <path d="M 242.0657958984375 238.39768981933594 C 227.35174560546875 237.3487091064453 231.67311096191406 261.7693786621094 242.811767578125 256.27593994140625" stroke-width="3.0580356121063232" fill="none" stroke="rgb(0, 0, 0)" stroke-opacity="1.0" stroke-linecap="round" stroke-linejoin="round"/>
    <path d="M 301.37591552734375 174.2305145263672 C 316.669921875 169.31398010253906 311.47979736328125 166.2152557373047 331.5748596191406 163.63449096679688" stroke-width="3.0580356121063232" fill="none" stroke="rgb(0, 0, 0)" stroke-opacity="1.0" stroke-linecap="round" stroke-linejoin="round"/>
    <path d="M 301.8032531738281 172.52450561523438 C 318.50494384765625 169.69949340820312 313.70648193359375 163.14222717285156 333.42022705078125 163.532958984375" stroke-width="3.0580356121063232" fill="none" stroke="rgb(0, 0, 0)" stroke-opacity="1.0" stroke-linecap="round" stroke-linejoin="round"/>
    <path d="M 290.7854919433594 171.84165954589844 C 268.3376770019531 154.7730255126953 312.2769775390625 150.15919494628906 291.9020080566406 169.34506225585938" stroke-width="3.0580356121063232" fill="none" stroke="rgb(0, 0, 0)" stroke-opacity="1.0" stroke-linecap="round" stroke-linejoin="round"/>
    <path d="M 321.5459289550781 166.43414306640625 C 334.4036560058594 162.52886962890625 331.1889343261719 165.41688537597656 338.010498046875 164.73431396484375" stroke-width="3.0580356121063232" fill="none" stroke="rgb(0, 0, 0)" stroke-opacity="1.0" stroke-linecap="round" stroke-linejoin="round"/>
    <path d="M 289.69482421875 170.32687377929688 C 269.4100646972656 153.70077514648438 313.998291015625 150.96038818359375 290.3722229003906 170.4281768798828" stroke-width="3.0580356121063232" fill="none" stroke="rgb(0, 0, 0)" stroke-opacity="1.0" stroke-linecap="round" stroke-linejoin="round"/>
    <path d="M 285.15826416015625 210.85043334960938 C 290.4498291015625 235.648193359375 284.6522521972656 223.75767517089844 291.3819274902344 238.77548217773438" stroke-width="3.0580356121063232" fill="none" stroke="rgb(0, 0, 0)" stroke-opacity="1.0" stroke-linecap="round" stroke-linejoin="round"/>
    <path d="M 240.4180450439453 241.88595581054688 C 258.35223388671875 234.21697998046875 261.3337707519531 235.1750030517578 274.16607666015625 214.10134887695312" stroke-width="3.0580356121063232" fill="none" stroke="rgb(0, 0, 0)" stroke-opacity="1.0" stroke-linecap="round" stroke-linejoin="round"/>
    <path d="M 327.7746276855469 164.9060821533203 C 336.94970703125 163.77455139160156 335.11370849609375 165.4473876953125 338.6073303222656 165.53030395507812" stroke-width="3.0580356121063232" fill="none" stroke="rgb(0, 0, 0)" stroke-opacity="1.0" stroke-linecap="round" stroke-linejoin="round"/>
    <path d="M 281.03515625 220.14501953125 C 288.7308349609375 235.5911102294922 286.1416931152344 233.0496826171875 293.232666015625 246.4066619873047" stroke-width="3.0580356121063232" fill="none" stroke="rgb(0, 0, 0)" stroke-opacity="1.0" stroke-linecap="round" stroke-linejoin="round"/>
    <path d="M 302.9227294921875 174.26458740234375 C 293.6547546386719 201.32923889160156 300.5345153808594 193.9294891357422 292.5975036621094 208.3472442626953" stroke-width="3.0580356121063232" fill="none" stroke="rgb(0, 0, 0)" stroke-opacity="1.0" stroke-linecap="round" stroke-linejoin="round"/>
    <path d="M 289.9206237792969 248.0482177734375 C 281.3694763183594 258.77978515625 304.4764709472656 261.4255676269531 304.2030334472656 256.95452880859375" stroke-width="3.0580356121063232" fill="none" stroke="rgb(0, 0, 0)" stroke-opacity="1.0" stroke-linecap="round" stroke-linejoin="round"/>
    <path d="M 287.66058349609375 175.9298095703125 C 309.01416015625 165.11029052734375 298.33197021484375 177.35260009765625 314.7572937011719 166.6745147705078" stroke-width="3.0580356121063232" fill="none" stroke="rgb(0, 0, 0)" stroke-opacity="1.0" stroke-linecap="round" stroke-linejoin="round"/>
    <path d="M 283.9644775390625 176.85604858398438 C 303.00653076171875 163.26388549804688 297.6729431152344 178.99710083007812 309.0001220703125 166.87591552734375" stroke-width="3.0580356121063232" fill="none" stroke="rgb(0, 0, 0)" stroke-opacity="1.0" stroke-linecap="round" stroke-linejoin="round"/>
    <path d="M 282.7906799316406 178.63845825195312 C 292.1484375 162.3957061767578 293.398681640625 178.76699829101562 301.6122131347656 166.83709716796875" stroke-width="3.0580356121063232" fill="none" stroke="rgb(0, 0, 0)" stroke-opacity="1.0" stroke-linecap="round" stroke-linejoin="round"/>
    <path d="M 277.44012451171875 200.1619110107422 C 263.89898681640625 234.87046813964844 267.93023681640625 227.68777465820312 246.66073608398438 236.16336059570312" stroke-width="3.0580356121063232" fill="none" stroke="rgb(0, 0, 0)" stroke-opacity="1.0" stroke-linecap="round" stroke-linejoin="round"/>
    <path d="M 293.0032653808594 203.02719116210938 C 296.8215026855469 218.2563934326172 283.7836608886719 212.6947479248047 288.08428955078125 224.56411743164062" stroke-width="3.0580356121063232" fill="none" stroke="rgb(0, 0, 0)" stroke-opacity="1.0" stroke-linecap="round" stroke-linejoin="round"/>
    <path d="M 268.3231201171875 204.53631591796875 C 284.5947265625 196.42831420898438 267.3780517578125 204.09132385253906 287.3089599609375 206.53436279296875" stroke-width="3.0580356121063232" fill="none" stroke="rgb(0, 0, 0)" stroke-opacity="1.0" stroke-linecap="round" stroke-linejoin="round"/>
    <path d="M 295.8817443847656 167.97361755371094 C 312.0400695800781 179.66114807128906 295.08782958984375 176.88905334472656 297.3762512207031 199.25015258789062" stroke-width="3.0580356121063232" fill="none" stroke="rgb(0, 0, 0)" stroke-opacity="1.0" stroke-linecap="round" stroke-linejoin="round"/>
    <path d="M 279.87054443359375 222.77874755859375 C 292.11962890625 239.87945556640625 283.0052185058594 243.59390258789062 294.54705810546875 251.27322387695312" stroke-width="3.0580356121063232" fill="none" stroke="rgb(0, 0, 0)" stroke-opacity="1.0" stroke-linecap="round" stroke-linejoin="round"/>
    <path d="M 271.6417236328125 205.77247619628906 C 287.10186767578125 223.0921630859375 276.6675109863281 228.7545166015625 289.0259704589844 232.7573699951172" stroke-width="3.0580356121063232" fill="none" stroke="rgb(0, 0, 0)" stroke-opacity="1.0" stroke-linecap="round" stroke-linejoin="round"/>
    <path d="M 272.42547607421875 197.5387420654297 C 270.4576416015625 201.00604248046875 275.75518798828125 219.4212646484375 258.6800842285156 233.00421142578125" stroke-width="3.0580356121063232" fill="none" stroke="rgb(0, 0, 0)" stroke-opacity="1.0" stroke-linecap="round" stroke-linejoin="round"/>
    <path d="M 265.39312744140625 217.1227569580078 C 285.8489685058594 186.65850830078125 280.01318359375 214.03964233398438 300.1497802734375 204.23980712890625" stroke-width="3.0580356121063232" fill="none" stroke="rgb(0, 0, 0)" stroke-opacity="1.0" stroke-linecap="round" stroke-linejoin="round"/>
    <path d="M 261.9687194824219 212.7320556640625 C 282.73712158203125 187.10845947265625 269.4471740722656 200.1143341064453 285.90191650390625 200.35586547851562" stroke-width="3.0580356121063232" fill="none" stroke="rgb(0, 0, 0)" stroke-opacity="1.0" stroke-linecap="round" stroke-linejoin="round"/>
    <path d="M 281.66851806640625 180.6214141845703 C 296.7059631347656 166.3900146484375 291.7915954589844 176.36221313476562 297.0306396484375 173.62167358398438" stroke-width="3.0580356121063232" fill="none" stroke="rgb(0, 0, 0)" stroke-opacity="1.0" stroke-linecap="round" stroke-linejoin="round"/>
    <path d="M 269.0417175292969 209.84466552734375 C 288.5625 181.8107452392578 276.31695556640625 202.80462646484375 292.37396240234375 190.71221923828125" stroke-width="3.0580356121063232" fill="none" stroke="rgb(0, 0, 0)" stroke-opacity="1.0" stroke-linecap="round" stroke-linejoin="round"/>
    <path d="M 111.80098724365234 219.47837829589844 C 119.5252685546875 266.82586669921875 101.12055969238281 259.8704833984375 129.78378295898438 260.5586853027344" stroke-width="4.642857074737549" fill="none" stroke="rgb(0, 0, 0)" stroke-opacity="1.0" stroke-linecap="round" stroke-linejoin="round"/>
    <path d="M 109.35527038574219 206.07907104492188 C 123.35432434082031 232.7486572265625 108.68537902832031 241.4272003173828 122.31954956054688 256.9741516113281" stroke-width="4.642857074737549" fill="none" stroke="rgb(0, 0, 0)" stroke-opacity="1.0" stroke-linecap="round" stroke-linejoin="round"/>
    <path d="M 116.95671081542969 166.22166442871094 C 123.37176513671875 184.41220092773438 126.30357360839844 207.002197265625 119.67218017578125 213.51756286621094" stroke-width="4.642857074737549" fill="none" stroke="rgb(0, 0, 0)" stroke-opacity="1.0" stroke-linecap="round" stroke-linejoin="round"/>
    <path d="M 90.00102233886719 221.95237731933594 C 83.93482208251953 229.735107421875 93.23250579833984 246.77276611328125 93.23130798339844 261.47393798828125" stroke-width="4.642857074737549" fill="none" stroke="rgb(0, 0, 0)" stroke-opacity="1.0" stroke-linecap="round" stroke-linejoin="round"/>
    <path d="M 86.32205963134766 194.12806701660156 C 77.17707061767578 228.77383422851562 83.20633697509766 218.51661682128906 89.28291320800781 245.4803924560547" stroke-width="4.642857074737549" fill="none" stroke="rgb(0, 0, 0)" stroke-opacity="1.0" stroke-linecap="round" stroke-linejoin="round"/>
    <path d="M 76.50688171386719 135.88796997070312 C 74.03885650634766 146.66583251953125 71.3516616821289 146.17738342285156 80.92584228515625 178.3212890625" stroke-width="4.642857074737549" fill="none" stroke="rgb(0, 0, 0)" stroke-opacity="1.0" stroke-linecap="round" stroke-linejoin="round"/>
    <path d="M 92.86518859863281 91.55152130126953 C 95.72746276855469 80.83607482910156 122.53607177734375 89.55516815185547 107.10018157958984 106.43323516845703" stroke-width="4.642857074737549" fill="none" stroke="rgb(0, 0, 0)" stroke-opacity="1.0" stroke-linecap="round" stroke-linejoin="round"/>
    <path d="M 89.96434783935547 249.60203552246094 C 87.60626983642578 257.12005615234375 73.60993194580078 264.6908874511719 95.5311050415039 262.23809814453125" stroke-width="4.642857074737549" fill="none" stroke="rgb(0, 0, 0)" stroke-opacity="1.0" stroke-linecap="round" stroke-linejoin="round"/>
    <path d="M 92.9332504272461 111.9979248046875 C 88.13687896728516 99.14420318603516 92.6029281616211 92.70455932617188 96.4420166015625 91.33181762695312" stroke-width="4.642857074737549" fill="none" stroke="rgb(0, 0, 0)" stroke-opacity="1.0" stroke-linecap="round" stroke-linejoin="round"/>
    <path d="M 77.37104034423828 141.3004150390625 C 72.04105377197266 174.6829833984375 85.22442626953125 169.468017578125 81.46221160888672 207.41458129882812" stroke-width="4.642857074737549" fill="none" stroke="rgb(0, 0, 0)" stroke-opacity="1.0" stroke-linecap="round" stroke-linejoin="round"/>
    <path d="M 97.44461059570312 106.85600280761719 C 128.87533569335938 120.66797637939453 110.89854431152344 113.78163146972656 121.78424072265625 151.20614624023438" stroke-width="4.642857074737549" fill="none" stroke="rgb(0, 0, 0)" stroke-opacity="1.0" stroke-linecap="round" stroke-linejoin="round"/>
    <path d="M 93.9285659790039 111.55908203125 C 86.3547592163086 93.82865905761719 95.14015197753906 81.84483337402344 106.33079528808594 88.25357818603516" stroke-width="4.642857074737549" fill="none" stroke="rgb(0, 0, 0)" stroke-opacity="1.0" stroke-linecap="round" stroke-linejoin="round"/>
    <path d="M 109.46885681152344 149.46267700195312 C 117.75479125976562 174.91424560546875 117.29505920410156 167.31094360351562 121.23681640625 179.844482421875" stroke-width="4.642857074737549" fill="none" stroke="rgb(0, 0, 0)" stroke-opacity="1.0" stroke-linecap="round" stroke-linejoin="round"/>
    <path d="M 113.16461181640625 139.1280975341797 C 120.82553100585938 150.10606384277344 125.83074951171875 166.47784423828125 128.7933349609375 160.02760314941406" stroke-width="4.642857074737549" fill="none" stroke="rgb(0, 0, 0)" stroke-opacity="1.0" stroke-linecap="round" stroke-linejoin="round"/>
    <path d="M 106.19251251220703 89.81193542480469 C 112.57411193847656 95.92212677001953 116.45082092285156 96.9095458984375 104.46200561523438 111.88278198242188" stroke-width="4.642857074737549" fill="none" stroke="rgb(0, 0, 0)" stroke-opacity="1.0" stroke-linecap="round" stroke-linejoin="round"/>
    <path d="M 93.9704818725586 107.01773071289062 C 82.41496276855469 78.05304718017578 115.76468658447266 83.61833190917969 111.20735168457031 99.84521484375" stroke-width="4.642857074737549" fill="none" stroke="rgb(0, 0, 0)" stroke-opacity="1.0" stroke-linecap="round" stroke-linejoin="round"/>
    <path d="M 85.44342041015625 234.69573974609375 C 77.64887237548828 222.97190856933594 98.12327575683594 228.7576904296875 91.14662170410156 260.57989501953125" stroke-width="4.642857074737549" fill="none" stroke="rgb(0, 0, 0)" stroke-opacity="1.0" stroke-linecap="round" stroke-linejoin="round"/>
    <path d="M 73.2351303100586 145.7490234375 C 75.01106262207031 111.22917175292969 85.4921875 119.89006805419922 95.2850112915039 109.0936279296875" stroke-width="4.642857074737549" fill="none" stroke="rgb(0, 0, 0)" stroke-opacity="1.0" stroke-linecap="round" stroke-linejoin="round"/>
    <path d="M 115.5147476196289 145.42581176757812 C 125.45988464355469 154.11306762695312 129.56466674804688 163.04681396484375 126.44805908203125 161.873046875" stroke-width="4.642857074737549" fill="none" stroke="rgb(0, 0, 0)" stroke-opacity="1.0" stroke-linecap="round" stroke-linejoin="round"/>
    <path d="M 88.64962768554688 112.25209045410156 C 101.64566802978516 99.40043640136719 91.88009643554688 114.7283935546875 106.24783325195312 109.20455932617188" stroke-width="4.642857074737549" fill="none" stroke="rgb(0, 0, 0)" stroke-opacity="1.0" stroke-linecap="round" stroke-linejoin="round"/>
    <path d="M 106.07176208496094 209.39881896972656 C 118.15773010253906 202.93531799316406 124.09783935546875 217.9182586669922 119.17868041992188 219.39280700683594" stroke-width="4.642857074737549" fill="none" stroke="rgb(0, 0, 0)" stroke-opacity="1.0" stroke-linecap="round" stroke-linejoin="round"/>
    <path d="M 88.36105346679688 116.27054595947266 C 97.3620834350586 136.14613342285156 77.1286392211914 120.4487533569336 89.18038940429688 178.65689086914062" stroke-width="4.642857074737549" fill="none" stroke="rgb(0, 0, 0)" stroke-opacity="1.0" stroke-linecap="round" stroke-linejoin="round"/>
    <path d="M 88.7385025024414 117.41567993164062 C 90.55691528320312 136.93954467773438 73.16986083984375 134.49136352539062 87.74230194091797 181.72964477539062" stroke-width="4.642857074737549" fill="none" stroke="rgb(0, 0, 0)" stroke-opacity="1.0" stroke-linecap="round" stroke-linejoin="round"/>
    <path d="M 109.687744140625 122.14906311035156 C 119.48280334472656 142.75021362304688 109.38325500488281 136.95547485351562 118.38923645019531 158.10968017578125" stroke-width="4.642857074737549" fill="none" stroke="rgb(0, 0, 0)" stroke-opacity="1.0" stroke-linecap="round" stroke-linejoin="round"/>
    <path d="M 101.5511245727539 142.42129516601562 C 121.58985900878906 141.8408203125 106.46139526367188 156.64181518554688 114.91798400878906 160.2915496826172" stroke-width="4.642857074737549" fill="none" stroke="rgb(0, 0, 0)" stroke-opacity="1.0" stroke-linecap="round" stroke-linejoin="round"/>
    <path d="M 95.91870880126953 181.90921020507812 C 108.70209503173828 212.27162170410156 82.4170150756836 214.13717651367188 91.14741516113281 234.4041748046875" stroke-width="4.642857074737549" fill="none" stroke="rgb(0, 0, 0)" stroke-opacity="1.0" stroke-linecap="round" stroke-linejoin="round"/>
    <path d="M 86.81295776367188 172.900390625 C 109.44435119628906 135.71841430664062 111.86287689208984 169.30874633789062 117.6295166015625 140.68630981445312" stroke-width="4.642857074737549" fill="none" stroke="rgb(0, 0, 0)" stroke-opacity="1.0" stroke-linecap="round" stroke-linejoin="round"/>
    <path d="M 87.05530548095703 164.76429748535156 C 110.01409149169922 124.39486694335938 106.62694549560547 157.54750061035156 114.35114288330078 140.9114227294922" stroke-width="4.642857074737549" fill="none" stroke="rgb(0, 0, 0)" stroke-opacity="1.0" stroke-linecap="round" stroke-linejoin="round"/>
    <path d="M 88.7376480102539 151.66989135742188 C 85.1077651977539 208.01382446289062 97.6244888305664 182.97274780273438 98.99894714355469 204.1420440673828" stroke-width="4.642857074737549" fill="none" stroke="rgb(0, 0, 0)" stroke-opacity="1.0" stroke-linecap="round" stroke-linejoin="round"/>
    <path d="M 87.80014038085938 181.670166015625 C 114.539306640625 205.861328125 83.27398681640625 214.26126098632812 90.9794921875 230.71585083007812" stroke-width="4.642857074737549" fill="none" stroke="rgb(0, 0, 0)" stroke-opacity="1.0" stroke-linecap="round" stroke-linejoin="round"/>
    <path d="M 83.84009552001953 140.56231689453125 C 96.24678039550781 145.1667022705078 77.74943542480469 158.85145568847656 98.77613067626953 168.02316284179688" stroke-width="4.642857074737549" fill="none" stroke="rgb(0, 0, 0)" stroke-opacity="1.0" stroke-linecap="round" stroke-linejoin="round"/>
    <path d="M 88.1763687133789 140.39865112304688 C 89.39616394042969 190.7454376220703 86.3207778930664 180.60694885253906 101.28592681884766 191.20030212402344" stroke-width="4.642857074737549" fill="none" stroke="rgb(0, 0, 0)" stroke-opacity="1.0" stroke-linecap="round" stroke-linejoin="round"/>
    <path d="M 403.4746398925781 136.78402709960938 C 401.4734802246094 136.6080780029297 402.1868591308594 138.3819580078125 402.28424072265625 137.58702087402344" stroke-width="0.8258928656578064" fill="none" stroke="rgb(0, 0, 0)" stroke-opacity="1.0" stroke-linecap="round" stroke-linejoin="round"/>
    <path d="M 404.5240478515625 135.07177734375 C 403.56695556640625 133.23497009277344 403.83074951171875 135.04550170898438 404.3601989746094 134.2490997314453" stroke-width="0.8258928656578064" fill="none" stroke="rgb(0, 0, 0)" stroke-opacity="1.0" stroke-linecap="round" stroke-linejoin="round"/>
    <path d="M 406.7783508300781 131.2308349609375 C 406.5263671875 129.41317749023438 405.8437194824219 130.64891052246094 406.467529296875 130.0308380126953" stroke-width="0.8258928656578064" fill="none" stroke="rgb(0, 0, 0)" stroke-opacity="1.0" stroke-linecap="round" stroke-linejoin="round"/>
    <path d="M 406.5741271972656 131.68759155273438 C 406.2264099121094 129.7506866455078 405.6272277832031 131.1808319091797 406.2496337890625 130.53536987304688" stroke-width="0.8258928656578064" fill="none" stroke="rgb(0, 0, 0)" stroke-opacity="1.0" stroke-linecap="round" stroke-linejoin="round"/>
    <path d="M 407.5319519042969 129.3992156982422 C 407.2017517089844 128.0245819091797 406.4622497558594 129.12966918945312 407.2293701171875 128.67422485351562" stroke-width="0.8258928656578064" fill="none" stroke="rgb(0, 0, 0)" stroke-opacity="1.0" stroke-linecap="round" stroke-linejoin="round"/>
    <path d="M 407.7542724609375 128.355712890625 C 407.35595703125 127.39689636230469 406.79376220703125 128.4788055419922 407.39031982421875 127.92799377441406" stroke-width="0.8258928656578064" fill="none" stroke="rgb(0, 0, 0)" stroke-opacity="1.0" stroke-linecap="round" stroke-linejoin="round"/>
    <path d="M 406.9010925292969 131.03433227539062 C 406.7311096191406 129.2042236328125 405.8866271972656 130.30487060546875 406.6434326171875 129.7896728515625" stroke-width="0.8258928656578064" fill="none" stroke="rgb(0, 0, 0)" stroke-opacity="1.0" stroke-linecap="round" stroke-linejoin="round"/>
    <path d="M 409.3784484863281 125.29132080078125 C 409.6213684082031 125.87939453125 409.613525390625 125.70423126220703 410.2149353027344 125.40742492675781" stroke-width="0.8258928656578064" fill="none" stroke="rgb(0, 0, 0)" stroke-opacity="1.0" stroke-linecap="round" stroke-linejoin="round"/>
    <path d="M 409.3542175292969 125.26072692871094 C 409.79443359375 125.75205993652344 409.7069396972656 125.33625793457031 410.2675476074219 125.4920425415039" stroke-width="0.8258928656578064" fill="none" stroke="rgb(0, 0, 0)" stroke-opacity="1.0" stroke-linecap="round" stroke-linejoin="round"/>
    <path d="M 409.3330993652344 125.24398040771484 C 409.8130187988281 125.72242736816406 409.7013854980469 125.24906158447266 410.2568359375 125.46602630615234" stroke-width="0.8258928656578064" fill="none" stroke="rgb(0, 0, 0)" stroke-opacity="1.0" stroke-linecap="round" stroke-linejoin="round"/>
    <path d="M 409.3577575683594 125.24588012695312 C 409.8205261230469 125.695068359375 409.74029541015625 125.27833557128906 410.2645568847656 125.5187759399414" stroke-width="0.8258928656578064" fill="none" stroke="rgb(0, 0, 0)" stroke-opacity="1.0" stroke-linecap="round" stroke-linejoin="round"/>
    <path d="M 409.3885498046875 125.23892211914062 C 409.82330322265625 125.67031860351562 409.78253173828125 125.29762268066406 410.2666015625 125.5729751586914" stroke-width="0.8258928656578064" fill="none" stroke="rgb(0, 0, 0)" stroke-opacity="1.0" stroke-linecap="round" stroke-linejoin="round"/>
    <path d="M 406.4335021972656 133.10366821289062 C 405.6522216796875 130.99749755859375 405.24407958984375 132.9125213623047 405.95166015625 132.26165771484375" stroke-width="0.8258928656578064" fill="none" stroke="rgb(0, 0, 0)" stroke-opacity="1.0" stroke-linecap="round" stroke-linejoin="round"/>
    <path d="M 409.41192626953125 125.21825408935547 C 409.833984375 125.62136840820312 409.8033142089844 125.29420471191406 410.2629089355469 125.60624694824219" stroke-width="0.8258928656578064" fill="none" stroke="rgb(0, 0, 0)" stroke-opacity="1.0" stroke-linecap="round" stroke-linejoin="round"/>
    <path d="M 409.4167175292969 125.21072387695312 C 409.8404846191406 125.60411071777344 409.8075866699219 125.28063201904297 410.2585754394531 125.6138687133789" stroke-width="0.8258928656578064" fill="none" stroke="rgb(0, 0, 0)" stroke-opacity="1.0" stroke-linecap="round" stroke-linejoin="round"/>
    <path d="M 409.596435546875 125.17289733886719 C 409.8409423828125 125.69871520996094 410.0748596191406 125.61238098144531 410.12542724609375 126.05470275878906" stroke-width="0.8258928656578064" fill="none" stroke="rgb(0, 0, 0)" stroke-opacity="1.0" stroke-linecap="round" stroke-linejoin="round"/>
    <path d="M 409.6124267578125 125.16398620605469 C 409.833984375 125.68000030517578 410.101318359375 125.649169921875 410.082275390625 126.11353302001953" stroke-width="0.8258928656578064" fill="none" stroke="rgb(0, 0, 0)" stroke-opacity="1.0" stroke-linecap="round" stroke-linejoin="round"/>
    <path d="M 406.6050109863281 131.794921875 C 406.00885009765625 129.76385498046875 405.42767333984375 131.62112426757812 406.15789794921875 131.070556640625" stroke-width="0.8258928656578064" fill="none" stroke="rgb(0, 0, 0)" stroke-opacity="1.0" stroke-linecap="round" stroke-linejoin="round"/>
    <path d="M 409.5892028808594 125.22708129882812 C 409.6542053222656 125.9698257446289 409.9722595214844 125.77059173583984 410.1734619140625 125.80271911621094" stroke-width="0.8258928656578064" fill="none" stroke="rgb(0, 0, 0)" stroke-opacity="1.0" stroke-linecap="round" stroke-linejoin="round"/>
    <path d="M 405.8702697753906 135.4021759033203 C 404.3867492675781 134.50733947753906 404.6767272949219 136.26683044433594 405.0009460449219 135.35934448242188" stroke-width="0.8258928656578064" fill="none" stroke="rgb(0, 0, 0)" stroke-opacity="1.0" stroke-linecap="round" stroke-linejoin="round"/>
    <path d="M 409.6239929199219 125.26342010498047 C 409.52288818359375 126.33773040771484 409.9410095214844 125.88758087158203 410.07806396484375 125.80850219726562" stroke-width="0.8258928656578064" fill="none" stroke="rgb(0, 0, 0)" stroke-opacity="1.0" stroke-linecap="round" stroke-linejoin="round"/>
    <path d="M 408.80010986328125 125.97212982177734 C 408.6977844238281 126.57013702392578 408.57330322265625 126.54811096191406 408.98345947265625 126.08070373535156" stroke-width="0.8258928656578064" fill="none" stroke="rgb(0, 0, 0)" stroke-opacity="1.0" stroke-linecap="round" stroke-linejoin="round"/>
    <path d="M 409.0234375 125.89382934570312 C 408.8722229003906 126.61665344238281 408.8360290527344 126.44009399414062 409.1336669921875 126.12429809570312" stroke-width="0.8258928656578064" fill="none" stroke="rgb(0, 0, 0)" stroke-opacity="1.0" stroke-linecap="round" stroke-linejoin="round"/>
    <path d="M 408.38525390625 126.23500061035156 C 408.2985534667969 126.54087829589844 408.07745361328125 126.93572998046875 408.5059509277344 126.32927703857422" stroke-width="0.8258928656578064" fill="none" stroke="rgb(0, 0, 0)" stroke-opacity="1.0" stroke-linecap="round" stroke-linejoin="round"/>
    <path d="M 408.9740905761719 126.08949279785156 C 408.7162170410156 126.72303771972656 408.6517639160156 126.74343872070312 408.78076171875 126.58256530761719" stroke-width="0.8258928656578064" fill="none" stroke="rgb(0, 0, 0)" stroke-opacity="1.0" stroke-linecap="round" stroke-linejoin="round"/>
    <path d="M 406.579345703125 129.48252868652344 C 405.65032958984375 128.39593505859375 405.6071472167969 130.49510192871094 405.760498046875 130.17547607421875" stroke-width="0.8258928656578064" fill="none" stroke="rgb(0, 0, 0)" stroke-opacity="1.0" stroke-linecap="round" stroke-linejoin="round"/>
    <path d="M 406.0316467285156 132.42665100097656 C 405.4969787597656 130.54832458496094 405.0601501464844 132.09292602539062 405.7710876464844 131.6094970703125" stroke-width="0.8258928656578064" fill="none" stroke="rgb(0, 0, 0)" stroke-opacity="1.0" stroke-linecap="round" stroke-linejoin="round"/>
    <path d="M 407.09320068359375 128.15530395507812 C 406.3243408203125 127.76522064208984 406.1194763183594 129.04896545410156 406.1610107421875 129.04966735839844" stroke-width="0.8258928656578064" fill="none" stroke="rgb(0, 0, 0)" stroke-opacity="1.0" stroke-linecap="round" stroke-linejoin="round"/>
    <path d="M 407.0008850097656 127.91899871826172 C 406.5409851074219 127.27682495117188 406.44036865234375 128.68191528320312 406.5776672363281 128.37074279785156" stroke-width="0.8258928656578064" fill="none" stroke="rgb(0, 0, 0)" stroke-opacity="1.0" stroke-linecap="round" stroke-linejoin="round"/>
    <path d="M 407.42034912109375 127.46935272216797 C 406.95111083984375 127.17225646972656 406.74444580078125 128.09254455566406 406.90869140625 127.80923461914062" stroke-width="0.8258928656578064" fill="none" stroke="rgb(0, 0, 0)" stroke-opacity="1.0" stroke-linecap="round" stroke-linejoin="round"/>
    <path d="M 408.49578857421875 126.36245727539062 C 408.302490234375 126.4947280883789 408.1289367675781 126.99727630615234 408.610595703125 126.26559448242188" stroke-width="0.8258928656578064" fill="none" stroke="rgb(0, 0, 0)" stroke-opacity="1.0" stroke-linecap="round" stroke-linejoin="round"/>
    <path d="M 408.5154113769531 126.23368835449219 C 408.3408203125 126.32329559326172 408.2069396972656 126.90396118164062 408.75079345703125 126.02207946777344" stroke-width="0.8258928656578064" fill="none" stroke="rgb(0, 0, 0)" stroke-opacity="1.0" stroke-linecap="round" stroke-linejoin="round"/>
  </g>
</svg>
