<?xml version="1.0" ?>
<svg xmlns="http://www.w3.org/2000/svg" version="1.1" width="640" height="428">
  <defs/>
  <g>
    <path d="M 227.59344482421875 70.05883026123047 C 232.70892333984375 69.99122619628906 234.66900634765625 70.14089965820312 241.47885131835938 69.30799102783203" stroke-width="1.1830357313156128" fill="none" stroke="rgb(0, 0, 0)" stroke-opacity="1.0" stroke-linecap="round" stroke-linejoin="round"/>
    <path d="M 223.36105346679688 62.733341217041016 C 223.74417114257812 56.969886779785156 228.51866149902344 58.63637924194336 230.5103759765625 56.785316467285156" stroke-width="1.1830357313156128" fill="none" stroke="rgb(0, 0, 0)" stroke-opacity="1.0" stroke-linecap="round" stroke-linejoin="round"/>
    <path d="M 245.684814453125 60.9369010925293 C 246.38442993164062 61.55247116088867 245.70053100585938 64.1826171875 246.5059814453125 68.31986999511719" stroke-width="1.1830357313156128" fill="none" stroke="rgb(0, 0, 0)" stroke-opacity="1.0" stroke-linecap="round" stroke-linejoin="round"/>
    <path d="M 223.42884826660156 62.72937774658203 C 222.72628784179688 67.8563232421875 222.82908630371094 69.6064453125 222.7612762451172 71.24053955078125" stroke-width="1.1830357313156128" fill="none" stroke="rgb(0, 0, 0)" stroke-opacity="1.0" stroke-linecap="round" stroke-linejoin="round"/>
    <path d="M 245.94589233398438 67.40818786621094 C 246.28717041015625 69.87872314453125 246.3448028564453 70.13140869140625 246.98666381835938 71.04737091064453" stroke-width="1.1830357313156128" fill="none" stroke="rgb(0, 0, 0)" stroke-opacity="1.0" stroke-linecap="round" stroke-linejoin="round"/>
    <path d="M 241.6812744140625 65.10433959960938 C 244.6194305419922 61.75273513793945 245.42764282226562 59.81053161621094 246.4757080078125 61.20766830444336" stroke-width="1.1830357313156128" fill="none" stroke="rgb(0, 0, 0)" stroke-opacity="1.0" stroke-linecap="round" stroke-linejoin="round"/>
    <path d="M 227.37216186523438 52.67542266845703 C 226.98709106445312 50.922149658203125 228.33670043945312 51.989402770996094 228.49606323242188 54.85896301269531" stroke-width="1.1830357313156128" fill="none" stroke="rgb(0, 0, 0)" stroke-opacity="1.0" stroke-linecap="round" stroke-linejoin="round"/>
    <path d="M 229.81021118164062 57.56475830078125 C 238.07386779785156 58.089988708496094 233.84251403808594 61.688560485839844 237.5063934326172 64.44718170166016" stroke-width="1.1830357313156128" fill="none" stroke="rgb(0, 0, 0)" stroke-opacity="1.0" stroke-linecap="round" stroke-linejoin="round"/>
    <path d="M 224.24671936035156 60.52349853515625 C 222.70982360839844 63.261573791503906 223.42840576171875 64.65029907226562 222.49380493164062 69.7376708984375" stroke-width="1.1830357313156128" fill="none" stroke="rgb(0, 0, 0)" stroke-opacity="1.0" stroke-linecap="round" stroke-linejoin="round"/>
    <path d="M 239.36097717285156 68.22753143310547 C 244.6302947998047 66.86552429199219 240.9014434814453 68.48758697509766 245.5033721923828 68.86164855957031" stroke-width="1.1830357313156128" fill="none" stroke="rgb(0, 0, 0)" stroke-opacity="1.0" stroke-linecap="round" stroke-linejoin="round"/>
    <path d="M 227.74948120117188 56.92314910888672 C 232.0375213623047 56.944923400878906 234.3270263671875 57.22918701171875 234.94976806640625 60.234745025634766" stroke-width="1.1830357313156128" fill="none" stroke="rgb(0, 0, 0)" stroke-opacity="1.0" stroke-linecap="round" stroke-linejoin="round"/>
    <path d="M 245.8461456298828 62.189361572265625 C 246.44151306152344 65.85810852050781 245.9879608154297 67.7055892944336 246.88735961914062 70.87754821777344" stroke-width="1.1830357313156128" fill="none" stroke="rgb(0, 0, 0)" stroke-opacity="1.0" stroke-linecap="round" stroke-linejoin="round"/>
    <path d="M 227.2472686767578 57.10680389404297 C 230.33908081054688 56.84315490722656 234.3842010498047 56.774986267089844 234.84402465820312 59.91313934326172" stroke-width="1.1830357313156128" fill="none" stroke="rgb(0, 0, 0)" stroke-opacity="1.0" stroke-linecap="round" stroke-linejoin="round"/>
    <path d="M 224.0147247314453 63.442386627197266 C 229.73895263671875 71.30584716796875 227.8092041015625 70.20611572265625 231.8694305419922 69.87338256835938" stroke-width="1.1830357313156128" fill="none" stroke="rgb(0, 0, 0)" stroke-opacity="1.0" stroke-linecap="round" stroke-linejoin="round"/>
    <path d="M 223.677978515625 62.5692138671875 C 227.40330505371094 70.11065673828125 228.51419067382812 70.29147338867188 231.71897888183594 70.02803039550781" stroke-width="1.1830357313156128" fill="none" stroke="rgb(0, 0, 0)" stroke-opacity="1.0" stroke-linecap="round" stroke-linejoin="round"/>
    <path d="M 224.3940887451172 59.955482482910156 C 223.14292907714844 62.2288818359375 226.93209838867188 68.54712677001953 230.8192901611328 69.96664428710938" stroke-width="1.1830357313156128" fill="none" stroke="rgb(0, 0, 0)" stroke-opacity="1.0" stroke-linecap="round" stroke-linejoin="round"/>
    <path d="M 227.9155731201172 51.690895080566406 C 228.71267700195312 53.5689811706543 227.89358520507812 53.95026779174805 229.09605407714844 56.372962951660156" stroke-width="1.1830357313156128" fill="none" stroke="rgb(0, 0, 0)" stroke-opacity="1.0" stroke-linecap="round" stroke-linejoin="round"/>
    <path d="M 237.91868591308594 69.61979675292969 C 245.56784057617188 70.04509735107422 243.4871826171875 70.44093322753906 246.9037322998047 70.59174346923828" stroke-width="1.1830357313156128" fill="none" stroke="rgb(0, 0, 0)" stroke-opacity="1.0" stroke-linecap="round" stroke-linejoin="round"/>
    <path d="M 224.83074951171875 59.93756103515625 C 223.09326171875 61.404579162597656 224.9837646484375 66.28489685058594 228.22433471679688 68.38734436035156" stroke-width="1.1830357313156128" fill="none" stroke="rgb(0, 0, 0)" stroke-opacity="1.0" stroke-linecap="round" stroke-linejoin="round"/>
    <path d="M 237.1439666748047 67.90660095214844 C 241.56320190429688 65.12118530273438 240.8139190673828 64.91847229003906 243.45806884765625 63.10063552856445" stroke-width="1.1830357313156128" fill="none" stroke="rgb(0, 0, 0)" stroke-opacity="1.0" stroke-linecap="round" stroke-linejoin="round"/>
    <path d="M 245.8331298828125 62.533851623535156 C 246.50808715820312 66.28048706054688 245.9417266845703 67.88981628417969 246.8644256591797 70.90858459472656" stroke-width="1.1830357313156128" fill="none" stroke="rgb(0, 0, 0)" stroke-opacity="1.0" stroke-linecap="round" stroke-linejoin="round"/>
    <path d="M 234.02468872070312 64.73741149902344 C 238.58546447753906 65.77946472167969 239.63180541992188 66.3815689086914 242.097412109375 64.69206237792969" stroke-width="1.1830357313156128" fill="none" stroke="rgb(0, 0, 0)" stroke-opacity="1.0" stroke-linecap="round" stroke-linejoin="round"/>
    <path d="M 232.5623321533203 63.334327697753906 C 233.28851318359375 64.20428466796875 230.4086456298828 64.61466979980469 232.48858642578125 67.11611938476562" stroke-width="1.1830357313156128" fill="none" stroke="rgb(0, 0, 0)" stroke-opacity="1.0" stroke-linecap="round" stroke-linejoin="round"/>
    <path d="M 234.16506958007812 62.904571533203125 C 233.606201171875 65.41624450683594 230.11087036132812 65.6880874633789 231.974853515625 69.50357055664062" stroke-width="1.1830357313156128" fill="none" stroke="rgb(0, 0, 0)" stroke-opacity="1.0" stroke-linecap="round" stroke-linejoin="round"/>
    <path d="M 232.40255737304688 63.31882095336914 C 233.2849884033203 64.19566345214844 230.29263305664062 64.4788818359375 232.36854553222656 67.0128402709961" stroke-width="1.1830357313156128" fill="none" stroke="rgb(0, 0, 0)" stroke-opacity="1.0" stroke-linecap="round" stroke-linejoin="round"/>
    <path d="M 236.01145935058594 68.74954223632812 C 242.42539978027344 67.85091400146484 238.2957305908203 69.42085266113281 244.74644470214844 69.25875854492188" stroke-width="1.1830357313156128" fill="none" stroke="rgb(0, 0, 0)" stroke-opacity="1.0" stroke-linecap="round" stroke-linejoin="round"/>
    <path d="M 233.37120056152344 59.07623291015625 C 237.36387634277344 60.804603576660156 233.36666870117188 64.10069274902344 238.1221160888672 65.32905578613281" stroke-width="1.1830357313156128" fill="none" stroke="rgb(0, 0, 0)" stroke-opacity="1.0" stroke-linecap="round" stroke-linejoin="round"/>
    <path d="M 232.57272338867188 60.118873596191406 C 236.12750244140625 61.21494674682617 232.8974609375 61.306854248046875 233.61724853515625 65.19501495361328" stroke-width="1.1830357313156128" fill="none" stroke="rgb(0, 0, 0)" stroke-opacity="1.0" stroke-linecap="round" stroke-linejoin="round"/>
    <path d="M 232.84027099609375 64.35694122314453 C 232.61880493164062 68.29104614257812 229.80557250976562 69.21475219726562 232.2579345703125 70.35739135742188" stroke-width="1.1830357313156128" fill="none" stroke="rgb(0, 0, 0)" stroke-opacity="1.0" stroke-linecap="round" stroke-linejoin="round"/>
    <path d="M 231.4534149169922 69.12458038330078 C 236.174560546875 68.08820343017578 234.00193786621094 70.04874420166016 240.9679718017578 68.32240295410156" stroke-width="1.1830357313156128" fill="none" stroke="rgb(0, 0, 0)" stroke-opacity="1.0" stroke-linecap="round" stroke-linejoin="round"/>
    <path d="M 235.4481964111328 61.12286376953125 C 235.3966522216797 63.82913589477539 233.30386352539062 63.670711517333984 231.86062622070312 68.4239730834961" stroke-width="1.1830357313156128" fill="none" stroke="rgb(0, 0, 0)" stroke-opacity="1.0" stroke-linecap="round" stroke-linejoin="round"/>
    <path d="M 235.3634490966797 61.8409538269043 C 234.9977264404297 64.92345428466797 232.23350524902344 64.81230926513672 231.88595581054688 69.45095825195312" stroke-width="1.1830357313156128" fill="none" stroke="rgb(0, 0, 0)" stroke-opacity="1.0" stroke-linecap="round" stroke-linejoin="round"/>
    <path d="M 221.55519104003906 359.32879638671875 C 210.98416137695312 367.3264465332031 281.9705810546875 368.0015563964844 269.9563903808594 342.3143615722656" stroke-width="8.348214149475098" fill="none" stroke="rgb(0, 0, 0)" stroke-opacity="1.0" stroke-linecap="round" stroke-linejoin="round"/>
    <path d="M 180.96524047851562 321.3889465332031 C 173.4774932861328 171.21112060546875 194.2142791748047 168.9502410888672 202.08761596679688 220.13722229003906" stroke-width="8.348214149475098" fill="none" stroke="rgb(0, 0, 0)" stroke-opacity="1.0" stroke-linecap="round" stroke-linejoin="round"/>
    <path d="M 218.1768035888672 149.25531005859375 C 179.99215698242188 102.33248901367188 214.25050354003906 80.33380889892578 241.208740234375 56.270145416259766" stroke-width="8.348214149475098" fill="none" stroke="rgb(0, 0, 0)" stroke-opacity="1.0" stroke-linecap="round" stroke-linejoin="round"/>
    <path d="M 188.69760131835938 229.21337890625 C 177.35809326171875 269.579345703125 180.87722778320312 320.57952880859375 179.62588500976562 370.7066955566406" stroke-width="8.348214149475098" fill="none" stroke="rgb(0, 0, 0)" stroke-opacity="1.0" stroke-linecap="round" stroke-linejoin="round"/>
    <path d="M 238.63571166992188 56.92964553833008 C 229.92604064941406 15.3231782913208 289.1832275390625 15.264182090759277 263.87152099609375 57.06999588012695" stroke-width="8.348214149475098" fill="none" stroke="rgb(0, 0, 0)" stroke-opacity="1.0" stroke-linecap="round" stroke-linejoin="round"/>
    <path d="M 175.52304077148438 364.2949523925781 C 166.15170288085938 367.6423645019531 180.80787658691406 365.7354431152344 266.82757568359375 356.9064025878906" stroke-width="8.348214149475098" fill="none" stroke="rgb(0, 0, 0)" stroke-opacity="1.0" stroke-linecap="round" stroke-linejoin="round"/>
    <path d="M 252.26141357421875 283.7786865234375 C 283.3870849609375 286.78387451171875 270.2520751953125 302.8165588378906 261.04217529296875 345.8190612792969" stroke-width="8.348214149475098" fill="none" stroke="rgb(0, 0, 0)" stroke-opacity="1.0" stroke-linecap="round" stroke-linejoin="round"/>
    <path d="M 239.46340942382812 188.31036376953125 C 234.7081298828125 239.82997131347656 248.45982360839844 300.7690124511719 268.66241455078125 299.9826965332031" stroke-width="8.348214149475098" fill="none" stroke="rgb(0, 0, 0)" stroke-opacity="1.0" stroke-linecap="round" stroke-linejoin="round"/>
    <path d="M 304.0148010253906 97.28594207763672 C 311.88671875 123.07493591308594 308.2118225097656 156.23350524902344 274.25335693359375 191.2384490966797" stroke-width="8.348214149475098" fill="none" stroke="rgb(0, 0, 0)" stroke-opacity="1.0" stroke-linecap="round" stroke-linejoin="round"/>
    <path d="M 271.68572998046875 63.697235107421875 C 294.21099853515625 69.79686737060547 317.8114929199219 91.90839385986328 302.1185302734375 150.245361328125" stroke-width="8.348214149475098" fill="none" stroke="rgb(0, 0, 0)" stroke-opacity="1.0" stroke-linecap="round" stroke-linejoin="round"/>
    <path d="M 267.850341796875 63.41615676879883 C 288.66900634765625 65.30782318115234 316.70416259765625 84.15682220458984 303.5408630371094 145.68081665039062" stroke-width="8.348214149475098" fill="none" stroke="rgb(0, 0, 0)" stroke-opacity="1.0" stroke-linecap="round" stroke-linejoin="round"/>
    <path d="M 237.10145568847656 42.56227111816406 C 255.05941772460938 14.911375045776367 283.8211364746094 17.927968978881836 262.6062316894531 68.5181884765625" stroke-width="8.348214149475098" fill="none" stroke="rgb(0, 0, 0)" stroke-opacity="1.0" stroke-linecap="round" stroke-linejoin="round"/>
    <path d="M 211.58229064941406 146.7018585205078 C 183.56588745117188 95.94019317626953 221.115478515625 75.02018737792969 241.30348205566406 55.366455078125" stroke-width="8.348214149475098" fill="none" stroke="rgb(0, 0, 0)" stroke-opacity="1.0" stroke-linecap="round" stroke-linejoin="round"/>
    <path d="M 264.17529296875 181.5626678466797 C 293.8442687988281 167.45559692382812 295.44415283203125 196.98109436035156 268.8414306640625 208.24095153808594" stroke-width="8.348214149475098" fill="none" stroke="rgb(0, 0, 0)" stroke-opacity="1.0" stroke-linecap="round" stroke-linejoin="round"/>
    <path d="M 272.9678955078125 169.81866455078125 C 268.5457763671875 229.14540100097656 243.43133544921875 230.78677368164062 265.14752197265625 283.5323791503906" stroke-width="8.348214149475098" fill="none" stroke="rgb(0, 0, 0)" stroke-opacity="1.0" stroke-linecap="round" stroke-linejoin="round"/>
    <path d="M 215.75563049316406 170.1092987060547 C 196.3089599609375 242.67884826660156 201.09010314941406 237.46295166015625 193.40155029296875 297.17926025390625" stroke-width="8.348214149475098" fill="none" stroke="rgb(0, 0, 0)" stroke-opacity="1.0" stroke-linecap="round" stroke-linejoin="round"/>
    <path d="M 235.27297973632812 60.65631103515625 C 214.69180297851562 116.97863006591797 238.2737274169922 119.15265655517578 210.41024780273438 184.4626007080078" stroke-width="8.348214149475098" fill="none" stroke="rgb(0, 0, 0)" stroke-opacity="1.0" stroke-linecap="round" stroke-linejoin="round"/>
    <path d="M 266.13482666015625 178.53868103027344 C 261.7379150390625 259.8914794921875 250.16439819335938 251.13938903808594 267.4693908691406 291.5733642578125" stroke-width="8.348214149475098" fill="none" stroke="rgb(0, 0, 0)" stroke-opacity="1.0" stroke-linecap="round" stroke-linejoin="round"/>
    <path d="M 177.50927734375 194.77227783203125 C 192.31204223632812 157.07154846191406 212.66897583007812 206.98687744140625 248.69406127929688 148.97569274902344" stroke-width="8.348214149475098" fill="none" stroke="rgb(0, 0, 0)" stroke-opacity="1.0" stroke-linecap="round" stroke-linejoin="round"/>
    <path d="M 199.53524780273438 213.7426300048828 C 212.77752685546875 304.7477111816406 208.4126434326172 332.3434143066406 219.76654052734375 365.9184875488281" stroke-width="8.348214149475098" fill="none" stroke="rgb(0, 0, 0)" stroke-opacity="1.0" stroke-linecap="round" stroke-linejoin="round"/>
    <path d="M 176.9489288330078 210.14862060546875 C 201.54505920410156 153.3644561767578 202.38380432128906 220.91140747070312 256.7109069824219 140.86257934570312" stroke-width="8.348214149475098" fill="none" stroke="rgb(0, 0, 0)" stroke-opacity="1.0" stroke-linecap="round" stroke-linejoin="round"/>
    <path d="M 237.20462036132812 166.9681854248047 C 209.50437927246094 233.27523803710938 238.89968872070312 266.4817810058594 259.37176513671875 291.6078186035156" stroke-width="8.348214149475098" fill="none" stroke="rgb(0, 0, 0)" stroke-opacity="1.0" stroke-linecap="round" stroke-linejoin="round"/>
    <path d="M 236.51715087890625 38.18706512451172 C 261.27593994140625 15.320503234863281 282.4714050292969 21.677898406982422 262.06927490234375 69.29367065429688" stroke-width="8.348214149475098" fill="none" stroke="rgb(0, 0, 0)" stroke-opacity="1.0" stroke-linecap="round" stroke-linejoin="round"/>
    <path d="M 218.7592315673828 73.65803527832031 C 267.37530517578125 58.175987243652344 246.9530792236328 82.5908432006836 277.13922119140625 55.42789077758789" stroke-width="8.348214149475098" fill="none" stroke="rgb(0, 0, 0)" stroke-opacity="1.0" stroke-linecap="round" stroke-linejoin="round"/>
    <path d="M 275.4844970703125 108.67965698242188 C 289.7463073730469 170.01904296875 269.3688659667969 160.45574951171875 286.8692626953125 179.45643615722656" stroke-width="8.348214149475098" fill="none" stroke="rgb(0, 0, 0)" stroke-opacity="1.0" stroke-linecap="round" stroke-linejoin="round"/>
    <path d="M 279.9588928222656 69.85832214355469 C 279.1866455078125 134.18975830078125 284.96630859375 107.94720458984375 269.00494384765625 183.5602264404297" stroke-width="8.348214149475098" fill="none" stroke="rgb(0, 0, 0)" stroke-opacity="1.0" stroke-linecap="round" stroke-linejoin="round"/>
    <path d="M 280.58074951171875 73.48234558105469 C 280.7579345703125 134.70460510253906 282.35040283203125 105.69737243652344 269.40399169921875 184.948486328125" stroke-width="8.348214149475098" fill="none" stroke="rgb(0, 0, 0)" stroke-opacity="1.0" stroke-linecap="round" stroke-linejoin="round"/>
    <path d="M 212.15528869628906 147.98094177246094 C 262.9709777832031 148.56463623046875 217.3765106201172 192.80531311035156 282.5841979980469 153.9644012451172" stroke-width="8.348214149475098" fill="none" stroke="rgb(0, 0, 0)" stroke-opacity="1.0" stroke-linecap="round" stroke-linejoin="round"/>
    <path d="M 178.75753784179688 261.51458740234375 C 230.07913208007812 140.30038452148438 199.36614990234375 228.0403594970703 283.61566162109375 158.29678344726562" stroke-width="8.348214149475098" fill="none" stroke="rgb(0, 0, 0)" stroke-opacity="1.0" stroke-linecap="round" stroke-linejoin="round"/>
    <path d="M 214.38340759277344 142.75535583496094 C 288.9437255859375 167.6585693359375 229.36891174316406 188.85829162597656 284.7972412109375 178.83184814453125" stroke-width="8.348214149475098" fill="none" stroke="rgb(0, 0, 0)" stroke-opacity="1.0" stroke-linecap="round" stroke-linejoin="round"/>
    <path d="M 255.6096954345703 99.69934844970703 C 273.38043212890625 135.50473022460938 235.75808715820312 133.155029296875 263.8134460449219 182.41903686523438" stroke-width="8.348214149475098" fill="none" stroke="rgb(0, 0, 0)" stroke-opacity="1.0" stroke-linecap="round" stroke-linejoin="round"/>
    <path d="M 197.0902099609375 208.88697814941406 C 227.28675842285156 312.499755859375 203.15003967285156 339.95452880859375 239.8556365966797 361.6590576171875" stroke-width="8.348214149475098" fill="none" stroke="rgb(0, 0, 0)" stroke-opacity="1.0" stroke-linecap="round" stroke-linejoin="round"/>
    <path d="M 185.92190551757812 263.5743713378906 C 193.03468322753906 251.17562866210938 215.3241424560547 260.7374572753906 222.548828125 252.72415161132812" stroke-width="3.8169643878936768" fill="none" stroke="rgb(0, 0, 0)" stroke-opacity="1.0" stroke-linecap="round" stroke-linejoin="round"/>
    <path d="M 261.8473815917969 228.22805786132812 C 290.6526184082031 226.88015747070312 279.6231689453125 221.62030029296875 283.22247314453125 244.67733764648438" stroke-width="3.8169643878936768" fill="none" stroke="rgb(0, 0, 0)" stroke-opacity="1.0" stroke-linecap="round" stroke-linejoin="round"/>
    <path d="M 210.34056091308594 328.74591064453125 C 236.51596069335938 329.22149658203125 272.9971923828125 329.51702880859375 282.08135986328125 326.19989013671875" stroke-width="3.8169643878936768" fill="none" stroke="rgb(0, 0, 0)" stroke-opacity="1.0" stroke-linecap="round" stroke-linejoin="round"/>
    <path d="M 189.12847900390625 226.7865753173828 C 185.5158233642578 268.9393005371094 184.87496948242188 268.000732421875 189.19186401367188 282.9564208984375" stroke-width="3.8169643878936768" fill="none" stroke="rgb(0, 0, 0)" stroke-opacity="1.0" stroke-linecap="round" stroke-linejoin="round"/>
    <path d="M 219.6031036376953 203.33148193359375 C 227.75881958007812 192.6679229736328 225.75247192382812 200.11334228515625 231.91567993164062 189.39657592773438" stroke-width="3.8169643878936768" fill="none" stroke="rgb(0, 0, 0)" stroke-opacity="1.0" stroke-linecap="round" stroke-linejoin="round"/>
    <path d="M 187.0700225830078 265.61505126953125 C 186.3694610595703 287.9215087890625 186.12210083007812 325.2941589355469 184.80767822265625 330.28021240234375" stroke-width="3.8169643878936768" fill="none" stroke="rgb(0, 0, 0)" stroke-opacity="1.0" stroke-linecap="round" stroke-linejoin="round"/>
    <path d="M 211.51580810546875 208.21475219726562 C 220.69009399414062 194.83306884765625 220.49496459960938 203.77911376953125 226.9245147705078 189.1313934326172" stroke-width="3.8169643878936768" fill="none" stroke="rgb(0, 0, 0)" stroke-opacity="1.0" stroke-linecap="round" stroke-linejoin="round"/>
    <path d="M 187.06121826171875 276.5457458496094 C 186.24412536621094 204.9959259033203 184.97744750976562 221.98765563964844 198.9872589111328 219.68240356445312" stroke-width="3.8169643878936768" fill="none" stroke="rgb(0, 0, 0)" stroke-opacity="1.0" stroke-linecap="round" stroke-linejoin="round"/>
    <path d="M 184.35536193847656 328.5035705566406 C 206.5526123046875 328.17059326171875 218.36550903320312 329.65802001953125 237.88270568847656 328.0184326171875" stroke-width="3.8169643878936768" fill="none" stroke="rgb(0, 0, 0)" stroke-opacity="1.0" stroke-linecap="round" stroke-linejoin="round"/>
    <path d="M 279.4613952636719 181.0342254638672 C 287.40081787109375 182.60321044921875 281.9373779296875 193.5233917236328 279.11871337890625 212.6160888671875" stroke-width="3.8169643878936768" fill="none" stroke="rgb(0, 0, 0)" stroke-opacity="1.0" stroke-linecap="round" stroke-linejoin="round"/>
    <path d="M 244.45350646972656 189.15872192382812 C 262.390380859375 176.01776123046875 268.439697265625 190.0751190185547 279.721923828125 183.1264190673828" stroke-width="3.8169643878936768" fill="none" stroke="rgb(0, 0, 0)" stroke-opacity="1.0" stroke-linecap="round" stroke-linejoin="round"/>
    <path d="M 219.72067260742188 241.79879760742188 C 228.81393432617188 273.49017333984375 213.76751708984375 287.67449951171875 219.22515869140625 322.49822998046875" stroke-width="3.8169643878936768" fill="none" stroke="rgb(0, 0, 0)" stroke-opacity="1.0" stroke-linecap="round" stroke-linejoin="round"/>
    <path d="M 188.32740783691406 224.87490844726562 C 209.4647979736328 209.61993408203125 209.19338989257812 204.87371826171875 224.8656768798828 193.49380493164062" stroke-width="3.8169643878936768" fill="none" stroke="rgb(0, 0, 0)" stroke-opacity="1.0" stroke-linecap="round" stroke-linejoin="round"/>
    <path d="M 271.7392272949219 190.04766845703125 C 282.10211181640625 199.08203125 270.6318664550781 204.40725708007812 275.3501281738281 218.24545288085938" stroke-width="3.8169643878936768" fill="none" stroke="rgb(0, 0, 0)" stroke-opacity="1.0" stroke-linecap="round" stroke-linejoin="round"/>
    <path d="M 281.3551025390625 241.313720703125 C 281.995361328125 260.62884521484375 282.22320556640625 272.1297607421875 281.25006103515625 283.40478515625" stroke-width="3.8169643878936768" fill="none" stroke="rgb(0, 0, 0)" stroke-opacity="1.0" stroke-linecap="round" stroke-linejoin="round"/>
    <path d="M 255.09237670898438 231.93356323242188 C 284.622314453125 234.41769409179688 282.30352783203125 223.30984497070312 283.606201171875 242.35015869140625" stroke-width="3.8169643878936768" fill="none" stroke="rgb(0, 0, 0)" stroke-opacity="1.0" stroke-linecap="round" stroke-linejoin="round"/>
    <path d="M 208.4438018798828 225.89013671875 C 226.08245849609375 199.291015625 235.02252197265625 203.83126831054688 248.2751922607422 192.44143676757812" stroke-width="3.8169643878936768" fill="none" stroke="rgb(0, 0, 0)" stroke-opacity="1.0" stroke-linecap="round" stroke-linejoin="round"/>
    <path d="M 251.90313720703125 243.45518493652344 C 269.5439453125 256.7453308105469 256.4409484863281 257.16192626953125 266.0845642089844 270.2903137207031" stroke-width="3.8169643878936768" fill="none" stroke="rgb(0, 0, 0)" stroke-opacity="1.0" stroke-linecap="round" stroke-linejoin="round"/>
    <path d="M 192.19302368164062 220.34939575195312 C 209.89443969726562 225.31863403320312 197.71755981445312 219.60289001464844 207.95712280273438 236.09800720214844" stroke-width="3.8169643878936768" fill="none" stroke="rgb(0, 0, 0)" stroke-opacity="1.0" stroke-linecap="round" stroke-linejoin="round"/>
    <path d="M 277.178466796875 302.4622802734375 C 274.8337097167969 313.2975158691406 264.8555908203125 315.30181884765625 275.3946228027344 322.8209228515625" stroke-width="3.8169643878936768" fill="none" stroke="rgb(0, 0, 0)" stroke-opacity="1.0" stroke-linecap="round" stroke-linejoin="round"/>
    <path d="M 249.14671325683594 295.4312438964844 C 242.462646484375 304.617919921875 243.29466247558594 306.39752197265625 236.3524169921875 316.62786865234375" stroke-width="3.8169643878936768" fill="none" stroke="rgb(0, 0, 0)" stroke-opacity="1.0" stroke-linecap="round" stroke-linejoin="round"/>
    <path d="M 219.19131469726562 226.47134399414062 C 225.90843200683594 254.03195190429688 228.9095458984375 263.50030517578125 227.00135803222656 284.9732666015625" stroke-width="3.8169643878936768" fill="none" stroke="rgb(0, 0, 0)" stroke-opacity="1.0" stroke-linecap="round" stroke-linejoin="round"/>
    <path d="M 256.2737731933594 278.2066650390625 C 271.782958984375 291.46533203125 271.92724609375 288.2261047363281 277.232666015625 289.19073486328125" stroke-width="3.8169643878936768" fill="none" stroke="rgb(0, 0, 0)" stroke-opacity="1.0" stroke-linecap="round" stroke-linejoin="round"/>
    <path d="M 263.84246826171875 206.0950927734375 C 260.5946044921875 221.04824829101562 251.25816345214844 221.71859741210938 258.49652099609375 234.16268920898438" stroke-width="3.8169643878936768" fill="none" stroke="rgb(0, 0, 0)" stroke-opacity="1.0" stroke-linecap="round" stroke-linejoin="round"/>
    <path d="M 251.43040466308594 213.62997436523438 C 252.362548828125 221.281005859375 244.702880859375 225.75299072265625 253.19224548339844 236.84915161132812" stroke-width="3.8169643878936768" fill="none" stroke="rgb(0, 0, 0)" stroke-opacity="1.0" stroke-linecap="round" stroke-linejoin="round"/>
    <path d="M 213.57598876953125 219.80728149414062 C 213.79629516601562 243.80715942382812 216.03077697753906 246.37191772460938 224.8003387451172 261.60748291015625" stroke-width="3.8169643878936768" fill="none" stroke="rgb(0, 0, 0)" stroke-opacity="1.0" stroke-linecap="round" stroke-linejoin="round"/>
    <path d="M 243.72119140625 227.7336883544922 C 259.5094299316406 237.4462127685547 249.72918701171875 242.3687744140625 268.18719482421875 246.84078979492188" stroke-width="3.8169643878936768" fill="none" stroke="rgb(0, 0, 0)" stroke-opacity="1.0" stroke-linecap="round" stroke-linejoin="round"/>
    <path d="M 265.626220703125 283.4832458496094 C 283.6239013671875 289.9627990722656 276.8662109375 303.0028381347656 273.476806640625 311.7479248046875" stroke-width="3.8169643878936768" fill="none" stroke="rgb(0, 0, 0)" stroke-opacity="1.0" stroke-linecap="round" stroke-linejoin="round"/>
    <path d="M 250.69183349609375 297.2334289550781 C 240.88156127929688 309.0912170410156 239.95062255859375 309.67193603515625 228.25193786621094 325.73675537109375" stroke-width="3.8169643878936768" fill="none" stroke="rgb(0, 0, 0)" stroke-opacity="1.0" stroke-linecap="round" stroke-linejoin="round"/>
    <path d="M 235.4718017578125 255.05494689941406 C 243.89031982421875 279.5025634765625 253.355712890625 291.7991943359375 263.932373046875 293.46124267578125" stroke-width="3.8169643878936768" fill="none" stroke="rgb(0, 0, 0)" stroke-opacity="1.0" stroke-linecap="round" stroke-linejoin="round"/>
    <path d="M 274.1605529785156 286.9346618652344 C 282.61370849609375 295.7117919921875 272.5107116699219 311.9141845703125 265.0567321777344 321.044677734375" stroke-width="3.8169643878936768" fill="none" stroke="rgb(0, 0, 0)" stroke-opacity="1.0" stroke-linecap="round" stroke-linejoin="round"/>
    <path d="M 206.981201171875 270.149658203125 C 204.9716339111328 294.2540283203125 208.30435180664062 319.208740234375 217.00933837890625 329.8603515625" stroke-width="3.8169643878936768" fill="none" stroke="rgb(0, 0, 0)" stroke-opacity="1.0" stroke-linecap="round" stroke-linejoin="round"/>
    <path d="M 240.45599365234375 150.77377319335938 C 244.09754943847656 151.08416748046875 276.7685852050781 149.9619140625 296.09320068359375 150.5185089111328" stroke-width="2.3660714626312256" fill="none" stroke="rgb(0, 0, 0)" stroke-opacity="1.0" stroke-linecap="round" stroke-linejoin="round"/>
    <path d="M 245.34332275390625 76.0924301147461 C 238.78688049316406 79.64985656738281 238.9976806640625 97.79464721679688 239.3029327392578 128.66497802734375" stroke-width="2.3660714626312256" fill="none" stroke="rgb(0, 0, 0)" stroke-opacity="1.0" stroke-linecap="round" stroke-linejoin="round"/>
    <path d="M 298.81353759765625 112.95589447021484 C 299.8012390136719 125.74143981933594 298.28765869140625 132.58364868164062 297.92608642578125 142.071044921875" stroke-width="2.3660714626312256" fill="none" stroke="rgb(0, 0, 0)" stroke-opacity="1.0" stroke-linecap="round" stroke-linejoin="round"/>
    <path d="M 252.20765686035156 75.63642883300781 C 265.65802001953125 67.92769622802734 263.81243896484375 77.21709442138672 272.50482177734375 74.17581939697266" stroke-width="2.3660714626312256" fill="none" stroke="rgb(0, 0, 0)" stroke-opacity="1.0" stroke-linecap="round" stroke-linejoin="round"/>
    <path d="M 297.1403503417969 83.4144515991211 C 299.2872009277344 85.5268325805664 297.51031494140625 96.93360900878906 299.33184814453125 110.23224639892578" stroke-width="2.3660714626312256" fill="none" stroke="rgb(0, 0, 0)" stroke-opacity="1.0" stroke-linecap="round" stroke-linejoin="round"/>
    <path d="M 240.63796997070312 103.53611755371094 C 239.21600341796875 124.76414489746094 238.00726318359375 133.43223571777344 239.60577392578125 148.32582092285156" stroke-width="2.3660714626312256" fill="none" stroke="rgb(0, 0, 0)" stroke-opacity="1.0" stroke-linecap="round" stroke-linejoin="round"/>
    <path d="M 251.51690673828125 69.51319885253906 C 257.5146179199219 65.1257095336914 259.5799865722656 65.81995391845703 264.7861328125 65.41731262207031" stroke-width="2.3660714626312256" fill="none" stroke="rgb(0, 0, 0)" stroke-opacity="1.0" stroke-linecap="round" stroke-linejoin="round"/>
    <path d="M 239.79173278808594 71.81411743164062 C 244.86959838867188 69.88685607910156 242.62388610839844 74.01079559326172 250.57101440429688 69.7127685546875" stroke-width="2.3660714626312256" fill="none" stroke="rgb(0, 0, 0)" stroke-opacity="1.0" stroke-linecap="round" stroke-linejoin="round"/>
    <path d="M 256.21502685546875 70.59242248535156 C 262.2227783203125 64.0990982055664 258.1295471191406 69.88046264648438 263.78961181640625 66.19116973876953" stroke-width="2.3660714626312256" fill="none" stroke="rgb(0, 0, 0)" stroke-opacity="1.0" stroke-linecap="round" stroke-linejoin="round"/>
    <path d="M 265.5330505371094 74.72853088378906 C 280.5052490234375 75.97286987304688 277.538330078125 69.02533721923828 285.1251220703125 74.37907409667969" stroke-width="2.3660714626312256" fill="none" stroke="rgb(0, 0, 0)" stroke-opacity="1.0" stroke-linecap="round" stroke-linejoin="round"/>
    <path d="M 253.01089477539062 75.67513275146484 C 264.6650390625 68.14572143554688 264.3952331542969 77.17300415039062 272.4330749511719 74.23202514648438" stroke-width="2.3660714626312256" fill="none" stroke="rgb(0, 0, 0)" stroke-opacity="1.0" stroke-linecap="round" stroke-linejoin="round"/>
    <path d="M 283.4715270996094 71.5442886352539 C 289.97979736328125 75.19813537597656 296.1303405761719 80.84722137451172 298.3915100097656 84.16146850585938" stroke-width="2.3660714626312256" fill="none" stroke="rgb(0, 0, 0)" stroke-opacity="1.0" stroke-linecap="round" stroke-linejoin="round"/>
    <path d="M 278.458984375 82.31216430664062 C 274.4188537597656 101.50587463378906 273.99542236328125 102.56363677978516 276.55255126953125 115.52714538574219" stroke-width="2.3660714626312256" fill="none" stroke="rgb(0, 0, 0)" stroke-opacity="1.0" stroke-linecap="round" stroke-linejoin="round"/>
    <path d="M 264.2494201660156 76.4845962524414 C 267.7465515136719 88.06523895263672 265.6812744140625 93.19142150878906 266.06256103515625 103.33019256591797" stroke-width="2.3660714626312256" fill="none" stroke="rgb(0, 0, 0)" stroke-opacity="1.0" stroke-linecap="round" stroke-linejoin="round"/>
    <path d="M 254.99534606933594 99.6081771850586 C 256.7062072753906 104.86418151855469 255.80726623535156 108.97128295898438 262.6955871582031 105.64154052734375" stroke-width="2.3660714626312256" fill="none" stroke="rgb(0, 0, 0)" stroke-opacity="1.0" stroke-linecap="round" stroke-linejoin="round"/>
    <path d="M 280.2454833984375 77.54629516601562 C 277.6057434082031 89.20710754394531 277.3468322753906 91.90203857421875 279.11260986328125 103.17817687988281" stroke-width="2.3660714626312256" fill="none" stroke="rgb(0, 0, 0)" stroke-opacity="1.0" stroke-linecap="round" stroke-linejoin="round"/>
    <path d="M 279.4478759765625 77.83466339111328 C 275.8953552246094 92.00663757324219 274.64508056640625 97.96932983398438 276.6735534667969 110.99794006347656" stroke-width="2.3660714626312256" fill="none" stroke="rgb(0, 0, 0)" stroke-opacity="1.0" stroke-linecap="round" stroke-linejoin="round"/>
    <path d="M 278.4007873535156 80.12574768066406 C 274.7935791015625 99.21615600585938 273.738037109375 100.69728088378906 276.3066101074219 114.37521362304688" stroke-width="2.3660714626312256" fill="none" stroke="rgb(0, 0, 0)" stroke-opacity="1.0" stroke-linecap="round" stroke-linejoin="round"/>
    <path d="M 279.34344482421875 74.06768798828125 C 275.0279541015625 85.65943908691406 273.7810974121094 94.66642761230469 273.6450500488281 109.96232604980469" stroke-width="2.3660714626312256" fill="none" stroke="rgb(0, 0, 0)" stroke-opacity="1.0" stroke-linecap="round" stroke-linejoin="round"/>
    <path d="M 260.2871398925781 69.71678161621094 C 266.2467041015625 77.50202178955078 264.32305908203125 73.04096984863281 265.20953369140625 82.062255859375" stroke-width="2.3660714626312256" fill="none" stroke="rgb(0, 0, 0)" stroke-opacity="1.0" stroke-linecap="round" stroke-linejoin="round"/>
    <path d="M 297.8013610839844 92.66606140136719 C 298.64996337890625 95.41114044189453 298.705078125 99.45496368408203 299.11968994140625 105.3160400390625" stroke-width="2.3660714626312256" fill="none" stroke="rgb(0, 0, 0)" stroke-opacity="1.0" stroke-linecap="round" stroke-linejoin="round"/>
    <path d="M 273.2380676269531 102.63009643554688 C 277.5720520019531 110.55823516845703 273.6717834472656 112.49786376953125 280.64202880859375 122.7425308227539" stroke-width="2.3660714626312256" fill="none" stroke="rgb(0, 0, 0)" stroke-opacity="1.0" stroke-linecap="round" stroke-linejoin="round"/>
    <path d="M 250.77867126464844 84.75774383544922 C 248.94992065429688 113.82467651367188 251.92330932617188 106.40629577636719 253.5731964111328 115.90375518798828" stroke-width="2.3660714626312256" fill="none" stroke="rgb(0, 0, 0)" stroke-opacity="1.0" stroke-linecap="round" stroke-linejoin="round"/>
    <path d="M 267.7390441894531 104.57453918457031 C 268.5718078613281 114.4091567993164 263.40350341796875 116.687255859375 262.7066955566406 130.1360321044922" stroke-width="2.3660714626312256" fill="none" stroke="rgb(0, 0, 0)" stroke-opacity="1.0" stroke-linecap="round" stroke-linejoin="round"/>
    <path d="M 277.88232421875 105.61398315429688 C 283.35614013671875 106.1399917602539 282.5391845703125 112.70696258544922 287.1396789550781 112.65293884277344" stroke-width="2.3660714626312256" fill="none" stroke="rgb(0, 0, 0)" stroke-opacity="1.0" stroke-linecap="round" stroke-linejoin="round"/>
    <path d="M 297.89849853515625 124.81451416015625 C 299.162353515625 135.14004516601562 295.8271179199219 142.97946166992188 299.11859130859375 148.6949920654297" stroke-width="2.3660714626312256" fill="none" stroke="rgb(0, 0, 0)" stroke-opacity="1.0" stroke-linecap="round" stroke-linejoin="round"/>
    <path d="M 298.28192138671875 98.0090103149414 C 299.829345703125 110.48187255859375 299.27716064453125 113.94247436523438 299.1690673828125 123.02435302734375" stroke-width="2.3660714626312256" fill="none" stroke="rgb(0, 0, 0)" stroke-opacity="1.0" stroke-linecap="round" stroke-linejoin="round"/>
    <path d="M 252.73519897460938 97.56829833984375 C 251.1092529296875 124.55226135253906 255.80227661132812 118.46975708007812 249.6608428955078 139.01266479492188" stroke-width="2.3660714626312256" fill="none" stroke="rgb(0, 0, 0)" stroke-opacity="1.0" stroke-linecap="round" stroke-linejoin="round"/>
    <path d="M 251.09657287597656 107.15325927734375 C 254.4647216796875 133.63914489746094 249.5666961669922 134.4800567626953 245.9522247314453 144.45269775390625" stroke-width="2.3660714626312256" fill="none" stroke="rgb(0, 0, 0)" stroke-opacity="1.0" stroke-linecap="round" stroke-linejoin="round"/>
    <path d="M 279.335693359375 122.6171875 C 270.576904296875 138.6396484375 269.1657409667969 139.54745483398438 264.6805419921875 143.72256469726562" stroke-width="2.3660714626312256" fill="none" stroke="rgb(0, 0, 0)" stroke-opacity="1.0" stroke-linecap="round" stroke-linejoin="round"/>
    <path d="M 295.4709777832031 129.91485595703125 C 298.9697570800781 131.97457885742188 296.5660400390625 136.44261169433594 298.0417785644531 140.08694458007812" stroke-width="2.3660714626312256" fill="none" stroke="rgb(0, 0, 0)" stroke-opacity="1.0" stroke-linecap="round" stroke-linejoin="round"/>
    <path d="M 242.79249572753906 139.8985595703125 C 250.19821166992188 138.91778564453125 243.8790283203125 149.9672088623047 262.746826171875 148.2795867919922" stroke-width="2.3660714626312256" fill="none" stroke="rgb(0, 0, 0)" stroke-opacity="1.0" stroke-linecap="round" stroke-linejoin="round"/>
    <path d="M 302.8819885253906 91.78388977050781 C 306.7962646484375 95.2669677734375 307.2078857421875 116.58164978027344 305.79803466796875 136.34471130371094" stroke-width="3.2142856121063232" fill="none" stroke="rgb(0, 0, 0)" stroke-opacity="1.0" stroke-linecap="round" stroke-linejoin="round"/>
    <path d="M 283.44482421875 76.88654327392578 C 293.46728515625 77.41445922851562 294.95751953125 83.38956451416016 301.2948913574219 90.6209716796875" stroke-width="3.2142856121063232" fill="none" stroke="rgb(0, 0, 0)" stroke-opacity="1.0" stroke-linecap="round" stroke-linejoin="round"/>
    <path d="M 212.33895874023438 174.317138671875 C 216.37950134277344 143.52491760253906 219.89691162109375 159.10977172851562 230.1333465576172 157.3345947265625" stroke-width="3.2142856121063232" fill="none" stroke="rgb(0, 0, 0)" stroke-opacity="1.0" stroke-linecap="round" stroke-linejoin="round"/>
    <path d="M 193.67208862304688 199.741943359375 C 199.7444305419922 200.4518280029297 242.7864227294922 200.66769409179688 280.8411865234375 199.20184326171875" stroke-width="3.2142856121063232" fill="none" stroke="rgb(0, 0, 0)" stroke-opacity="1.0" stroke-linecap="round" stroke-linejoin="round"/>
    <path d="M 200.8436279296875 131.226318359375 C 187.0325164794922 111.7413101196289 208.82534790039062 86.0019760131836 213.65301513671875 88.20677185058594" stroke-width="3.2142856121063232" fill="none" stroke="rgb(0, 0, 0)" stroke-opacity="1.0" stroke-linecap="round" stroke-linejoin="round"/>
    <path d="M 207.9335174560547 86.95797729492188 C 215.19923400878906 94.08892059326172 216.8275146484375 96.85456848144531 222.86361694335938 88.54935455322266" stroke-width="3.2142856121063232" fill="none" stroke="rgb(0, 0, 0)" stroke-opacity="1.0" stroke-linecap="round" stroke-linejoin="round"/>
    <path d="M 277.91778564453125 83.6844711303711 C 278.329345703125 96.4594497680664 281.7610778808594 97.798583984375 284.5207214355469 113.46553802490234" stroke-width="3.2142856121063232" fill="none" stroke="rgb(0, 0, 0)" stroke-opacity="1.0" stroke-linecap="round" stroke-linejoin="round"/>
    <path d="M 291.517578125 81.66744232177734 C 299.87786865234375 85.95993041992188 302.876708984375 90.61158752441406 305.5264892578125 98.37199401855469" stroke-width="3.2142856121063232" fill="none" stroke="rgb(0, 0, 0)" stroke-opacity="1.0" stroke-linecap="round" stroke-linejoin="round"/>
    <path d="M 201.918212890625 131.634765625 C 207.90380859375 135.46759033203125 219.09323120117188 127.59660339355469 226.3760528564453 102.82882690429688" stroke-width="3.2142856121063232" fill="none" stroke="rgb(0, 0, 0)" stroke-opacity="1.0" stroke-linecap="round" stroke-linejoin="round"/>
    <path d="M 265.24188232421875 198.107666015625 C 284.160400390625 199.20782470703125 302.8472595214844 200.57664489746094 310.25457763671875 200.21914672851562" stroke-width="3.2142856121063232" fill="none" stroke="rgb(0, 0, 0)" stroke-opacity="1.0" stroke-linecap="round" stroke-linejoin="round"/>
    <path d="M 217.961669921875 94.79055786132812 C 247.96551513671875 78.58695983886719 235.2987518310547 79.37808227539062 257.5823669433594 80.71343994140625" stroke-width="3.2142856121063232" fill="none" stroke="rgb(0, 0, 0)" stroke-opacity="1.0" stroke-linecap="round" stroke-linejoin="round"/>
    <path d="M 224.772216796875 91.92723846435547 C 244.95895385742188 78.17194366455078 240.716064453125 80.91200256347656 249.19998168945312 80.7103271484375" stroke-width="3.2142856121063232" fill="none" stroke="rgb(0, 0, 0)" stroke-opacity="1.0" stroke-linecap="round" stroke-linejoin="round"/>
    <path d="M 209.98899841308594 176.26953125 C 185.81198120117188 179.659912109375 189.92855834960938 185.5338134765625 188.2486572265625 199.62705993652344" stroke-width="3.2142856121063232" fill="none" stroke="rgb(0, 0, 0)" stroke-opacity="1.0" stroke-linecap="round" stroke-linejoin="round"/>
    <path d="M 305.343994140625 110.64773559570312 C 306.07586669921875 127.47026062011719 305.066650390625 140.44927978515625 302.614013671875 145.154052734375" stroke-width="3.2142856121063232" fill="none" stroke="rgb(0, 0, 0)" stroke-opacity="1.0" stroke-linecap="round" stroke-linejoin="round"/>
    <path d="M 210.73577880859375 199.91876220703125 C 259.129150390625 200.36717224121094 277.9584655761719 200.3201446533203 293.25048828125 197.54603576660156" stroke-width="3.2142856121063232" fill="none" stroke="rgb(0, 0, 0)" stroke-opacity="1.0" stroke-linecap="round" stroke-linejoin="round"/>
    <path d="M 213.1437530517578 180.84402465820312 C 239.4097900390625 186.51910400390625 250.43218994140625 180.4552001953125 266.911376953125 170.0930938720703" stroke-width="3.2142856121063232" fill="none" stroke="rgb(0, 0, 0)" stroke-opacity="1.0" stroke-linecap="round" stroke-linejoin="round"/>
    <path d="M 225.4366455078125 91.9317626953125 C 225.1697235107422 128.44046020507812 229.72845458984375 138.68768310546875 234.69920349121094 156.11517333984375" stroke-width="3.2142856121063232" fill="none" stroke="rgb(0, 0, 0)" stroke-opacity="1.0" stroke-linecap="round" stroke-linejoin="round"/>
    <path d="M 226.43453979492188 198.55747985839844 C 254.29324340820312 198.86572265625 269.89532470703125 200.56427001953125 292.1965026855469 197.9199981689453" stroke-width="3.2142856121063232" fill="none" stroke="rgb(0, 0, 0)" stroke-opacity="1.0" stroke-linecap="round" stroke-linejoin="round"/>
    <path d="M 224.86634826660156 130.24371337890625 C 231.77183532714844 152.04888916015625 228.24679565429688 160.86224365234375 250.73678588867188 148.82211303710938" stroke-width="3.2142856121063232" fill="none" stroke="rgb(0, 0, 0)" stroke-opacity="1.0" stroke-linecap="round" stroke-linejoin="round"/>
    <path d="M 291.105224609375 188.8644256591797 C 302.20587158203125 193.89520263671875 302.14129638671875 191.07806396484375 308.4227294921875 197.4207763671875" stroke-width="3.2142856121063232" fill="none" stroke="rgb(0, 0, 0)" stroke-opacity="1.0" stroke-linecap="round" stroke-linejoin="round"/>
    <path d="M 230.39883422851562 86.94644927978516 C 225.01962280273438 104.32211303710938 226.9659423828125 104.62079620361328 227.8987274169922 126.03414916992188" stroke-width="3.2142856121063232" fill="none" stroke="rgb(0, 0, 0)" stroke-opacity="1.0" stroke-linecap="round" stroke-linejoin="round"/>
    <path d="M 217.01812744140625 183.68002319335938 C 253.67640686035156 179.2410888671875 258.283935546875 176.45364379882812 272.7906188964844 165.84500122070312" stroke-width="3.2142856121063232" fill="none" stroke="rgb(0, 0, 0)" stroke-opacity="1.0" stroke-linecap="round" stroke-linejoin="round"/>
    <path d="M 273.14764404296875 132.08084106445312 C 277.38616943359375 166.65875244140625 268.090087890625 158.66604614257812 275.47821044921875 170.8297119140625" stroke-width="3.2142856121063232" fill="none" stroke="rgb(0, 0, 0)" stroke-opacity="1.0" stroke-linecap="round" stroke-linejoin="round"/>
    <path d="M 251.85263061523438 102.82929992675781 C 264.7319641113281 116.06278991699219 260.5871887207031 115.97663879394531 264.22454833984375 130.79339599609375" stroke-width="3.2142856121063232" fill="none" stroke="rgb(0, 0, 0)" stroke-opacity="1.0" stroke-linecap="round" stroke-linejoin="round"/>
    <path d="M 270.9521484375 82.58116149902344 C 267.7834777832031 93.72451782226562 267.2638854980469 99.6753158569336 264.5782775878906 109.64708709716797" stroke-width="3.2142856121063232" fill="none" stroke="rgb(0, 0, 0)" stroke-opacity="1.0" stroke-linecap="round" stroke-linejoin="round"/>
    <path d="M 269.5385437011719 125.47920227050781 C 272.60498046875 157.99378967285156 264.9798583984375 154.40097045898438 271.0635986328125 162.26907348632812" stroke-width="3.2142856121063232" fill="none" stroke="rgb(0, 0, 0)" stroke-opacity="1.0" stroke-linecap="round" stroke-linejoin="round"/>
    <path d="M 249.4490966796875 102.87239074707031 C 260.7331848144531 113.54035949707031 255.80311584472656 116.73553466796875 263.9399108886719 121.20123291015625" stroke-width="3.2142856121063232" fill="none" stroke="rgb(0, 0, 0)" stroke-opacity="1.0" stroke-linecap="round" stroke-linejoin="round"/>
    <path d="M 274.1334533691406 115.91011810302734 C 274.8039245605469 161.981689453125 269.9874572753906 152.68655395507812 273.0443115234375 164.4986572265625" stroke-width="3.2142856121063232" fill="none" stroke="rgb(0, 0, 0)" stroke-opacity="1.0" stroke-linecap="round" stroke-linejoin="round"/>
    <path d="M 224.4844970703125 164.67759704589844 C 246.41769409179688 154.1517333984375 263.2885437011719 163.40866088867188 272.3682556152344 144.07247924804688" stroke-width="3.2142856121063232" fill="none" stroke="rgb(0, 0, 0)" stroke-opacity="1.0" stroke-linecap="round" stroke-linejoin="round"/>
    <path d="M 287.7095947265625 141.77110290527344 C 305.9757080078125 145.419189453125 304.3896484375 151.923583984375 300.8779602050781 170.6197967529297" stroke-width="3.2142856121063232" fill="none" stroke="rgb(0, 0, 0)" stroke-opacity="1.0" stroke-linecap="round" stroke-linejoin="round"/>
    <path d="M 201.88046264648438 177.29287719726562 C 221.0365447998047 183.45584106445312 237.1317901611328 189.81024169921875 258.18206787109375 178.52008056640625" stroke-width="3.2142856121063232" fill="none" stroke="rgb(0, 0, 0)" stroke-opacity="1.0" stroke-linecap="round" stroke-linejoin="round"/>
    <path d="M 293.4825744628906 160.32882690429688 C 294.52886962890625 166.3209228515625 291.361328125 179.74209594726562 284.9263000488281 187.376708984375" stroke-width="3.2142856121063232" fill="none" stroke="rgb(0, 0, 0)" stroke-opacity="1.0" stroke-linecap="round" stroke-linejoin="round"/>
  </g>
</svg>
