<?xml version="1.0" ?>
<svg xmlns="http://www.w3.org/2000/svg" version="1.1" width="480" height="640">
  <defs/>
  <g>
    <path d="M 23.774309158325195 487.2065124511719 C 14.892816543579102 432.1742858886719 43.150169372558594 440.5089416503906 48.63357925415039 460.5045166015625" stroke-width="5.870535850524902" fill="none" stroke="rgb(0, 0, 0)" stroke-opacity="1.0" stroke-linecap="round" stroke-linejoin="round"/>
    <path d="M 91.18321990966797 579.2740478515625 C 107.84173583984375 577.1661376953125 101.45056915283203 583.672607421875 118.27106475830078 580.2171630859375" stroke-width="5.870535850524902" fill="none" stroke="rgb(0, 0, 0)" stroke-opacity="1.0" stroke-linecap="round" stroke-linejoin="round"/>
    <path d="M 169.5123291015625 556.841796875 C 204.55859375 567.0269165039062 176.65682983398438 580.0697631835938 190.25515747070312 590.88134765625" stroke-width="5.870535850524902" fill="none" stroke="rgb(0, 0, 0)" stroke-opacity="1.0" stroke-linecap="round" stroke-linejoin="round"/>
    <path d="M 37.968994140625 450.1614990234375 C 47.44535446166992 426.10565185546875 54.23242950439453 440.54150390625 65.99110412597656 441.97552490234375" stroke-width="5.870535850524902" fill="none" stroke="rgb(0, 0, 0)" stroke-opacity="1.0" stroke-linecap="round" stroke-linejoin="round"/>
    <path d="M 9.332757949829102 515.8980102539062 C 12.490167617797852 570.0706787109375 14.855052947998047 576.224365234375 11.6688232421875 590.7129516601562" stroke-width="5.870535850524902" fill="none" stroke="rgb(0, 0, 0)" stroke-opacity="1.0" stroke-linecap="round" stroke-linejoin="round"/>
    <path d="M 58.98649597167969 436.82464599609375 C 74.36146545410156 437.589599609375 68.74363708496094 450.7469177246094 87.3141860961914 442.3874206542969" stroke-width="5.870535850524902" fill="none" stroke="rgb(0, 0, 0)" stroke-opacity="1.0" stroke-linecap="round" stroke-linejoin="round"/>
    <path d="M 104.44953918457031 446.956298828125 C 129.10658264160156 427.37969970703125 121.49433135986328 440.60736083984375 138.0175323486328 433.5739440917969" stroke-width="5.870535850524902" fill="none" stroke="rgb(0, 0, 0)" stroke-opacity="1.0" stroke-linecap="round" stroke-linejoin="round"/>
    <path d="M 126.3464584350586 443.701904296875 C 152.30003356933594 423.1298522949219 159.3014373779297 437.77410888671875 180.85435485839844 435.8863525390625" stroke-width="5.870535850524902" fill="none" stroke="rgb(0, 0, 0)" stroke-opacity="1.0" stroke-linecap="round" stroke-linejoin="round"/>
    <path d="M 196.6050567626953 439.93963623046875 C 204.20938110351562 447.560302734375 203.14634704589844 450.71820068359375 211.07489013671875 453.41448974609375" stroke-width="5.870535850524902" fill="none" stroke="rgb(0, 0, 0)" stroke-opacity="1.0" stroke-linecap="round" stroke-linejoin="round"/>
    <path d="M 67.13047790527344 445.2303161621094 C 88.80473327636719 436.3331604003906 78.82862854003906 445.4878845214844 96.7890396118164 436.8096008300781" stroke-width="5.870535850524902" fill="none" stroke="rgb(0, 0, 0)" stroke-opacity="1.0" stroke-linecap="round" stroke-linejoin="round"/>
    <path d="M 26.527191162109375 484.471435546875 C 11.48560905456543 509.84619140625 16.231767654418945 529.8226928710938 16.406986236572266 551.1824951171875" stroke-width="5.870535850524902" fill="none" stroke="rgb(0, 0, 0)" stroke-opacity="1.0" stroke-linecap="round" stroke-linejoin="round"/>
    <path d="M 31.87266731262207 553.02197265625 C 52.39773941040039 577.9698486328125 45.414058685302734 582.2982177734375 71.18817901611328 585.317626953125" stroke-width="5.870535850524902" fill="none" stroke="rgb(0, 0, 0)" stroke-opacity="1.0" stroke-linecap="round" stroke-linejoin="round"/>
    <path d="M 216.45484924316406 458.2478942871094 C 235.88526916503906 453.48828125 236.6357879638672 483.3412780761719 225.67127990722656 510.49603271484375" stroke-width="5.870535850524902" fill="none" stroke="rgb(0, 0, 0)" stroke-opacity="1.0" stroke-linecap="round" stroke-linejoin="round"/>
    <path d="M 68.82801818847656 439.09661865234375 C 96.99092864990234 457.6673889160156 76.8900375366211 450.64617919921875 112.97160339355469 477.13739013671875" stroke-width="5.870535850524902" fill="none" stroke="rgb(0, 0, 0)" stroke-opacity="1.0" stroke-linecap="round" stroke-linejoin="round"/>
    <path d="M 167.38922119140625 557.0313720703125 C 197.6466827392578 562.3443603515625 181.5891876220703 571.8505249023438 188.16928100585938 582.5340576171875" stroke-width="5.870535850524902" fill="none" stroke="rgb(0, 0, 0)" stroke-opacity="1.0" stroke-linecap="round" stroke-linejoin="round"/>
    <path d="M 153.23977661132812 441.2217102050781 C 167.1060028076172 469.78546142578125 161.7340545654297 470.69061279296875 175.53761291503906 471.97479248046875" stroke-width="5.870535850524902" fill="none" stroke="rgb(0, 0, 0)" stroke-opacity="1.0" stroke-linecap="round" stroke-linejoin="round"/>
    <path d="M 107.8803482055664 561.94970703125 C 141.19281005859375 550.47314453125 161.1405029296875 556.77880859375 187.987060546875 532.955322265625" stroke-width="5.870535850524902" fill="none" stroke="rgb(0, 0, 0)" stroke-opacity="1.0" stroke-linecap="round" stroke-linejoin="round"/>
    <path d="M 73.31401824951172 545.09716796875 C 99.61991119384766 558.716796875 88.39855194091797 569.3577880859375 132.36863708496094 558.3204345703125" stroke-width="5.870535850524902" fill="none" stroke="rgb(0, 0, 0)" stroke-opacity="1.0" stroke-linecap="round" stroke-linejoin="round"/>
    <path d="M 42.46061325073242 481.520263671875 C 52.135623931884766 520.1357421875 48.57067108154297 521.10791015625 76.25147247314453 544.2453002929688" stroke-width="5.870535850524902" fill="none" stroke="rgb(0, 0, 0)" stroke-opacity="1.0" stroke-linecap="round" stroke-linejoin="round"/>
    <path d="M 79.64285278320312 531.800537109375 C 107.8575668334961 521.8253784179688 149.1132049560547 534.8923950195312 166.52667236328125 514.6936645507812" stroke-width="5.870535850524902" fill="none" stroke="rgb(0, 0, 0)" stroke-opacity="1.0" stroke-linecap="round" stroke-linejoin="round"/>
    <path d="M 143.64300537109375 458.64154052734375 C 170.60818481445312 475.751220703125 182.66159057617188 482.5819091796875 197.1154022216797 478.8177490234375" stroke-width="5.870535850524902" fill="none" stroke="rgb(0, 0, 0)" stroke-opacity="1.0" stroke-linecap="round" stroke-linejoin="round"/>
    <path d="M 118.39359283447266 503.34515380859375 C 163.76284790039062 461.9038391113281 142.51197814941406 486.677734375 167.69342041015625 472.53863525390625" stroke-width="5.870535850524902" fill="none" stroke="rgb(0, 0, 0)" stroke-opacity="1.0" stroke-linecap="round" stroke-linejoin="round"/>
    <path d="M 65.28897857666016 451.891357421875 C 103.44548034667969 470.5111389160156 80.96387481689453 478.3529052734375 117.09815216064453 483.0216979980469" stroke-width="5.870535850524902" fill="none" stroke="rgb(0, 0, 0)" stroke-opacity="1.0" stroke-linecap="round" stroke-linejoin="round"/>
    <path d="M 71.93187713623047 457.41815185546875 C 108.50996398925781 465.2075500488281 87.97151947021484 479.92608642578125 125.34880065917969 470.53387451171875" stroke-width="5.870535850524902" fill="none" stroke="rgb(0, 0, 0)" stroke-opacity="1.0" stroke-linecap="round" stroke-linejoin="round"/>
    <path d="M 58.06517791748047 477.3357849121094 C 101.21630859375 477.30267333984375 75.67282104492188 496.6437683105469 111.3715591430664 501.41082763671875" stroke-width="5.870535850524902" fill="none" stroke="rgb(0, 0, 0)" stroke-opacity="1.0" stroke-linecap="round" stroke-linejoin="round"/>
    <path d="M 208.5287322998047 492.2955627441406 C 199.40130615234375 509.00518798828125 197.24554443359375 515.5386352539062 201.11444091796875 513.4905395507812" stroke-width="5.870535850524902" fill="none" stroke="rgb(0, 0, 0)" stroke-opacity="1.0" stroke-linecap="round" stroke-linejoin="round"/>
    <path d="M 106.21024322509766 565.6484985351562 C 146.70367431640625 557.56689453125 177.17356872558594 557.5287475585938 199.04483032226562 531.9192504882812" stroke-width="5.870535850524902" fill="none" stroke="rgb(0, 0, 0)" stroke-opacity="1.0" stroke-linecap="round" stroke-linejoin="round"/>
    <path d="M 200.49859619140625 510.1664733886719 C 200.9598846435547 513.9825439453125 198.37457275390625 522.1185302734375 206.24984741210938 509.94830322265625" stroke-width="5.870535850524902" fill="none" stroke="rgb(0, 0, 0)" stroke-opacity="1.0" stroke-linecap="round" stroke-linejoin="round"/>
    <path d="M 32.62458038330078 527.9793090820312 C 64.160888671875 563.9313354492188 67.28507995605469 563.7809448242188 95.1146469116211 564.83154296875" stroke-width="5.870535850524902" fill="none" stroke="rgb(0, 0, 0)" stroke-opacity="1.0" stroke-linecap="round" stroke-linejoin="round"/>
    <path d="M 227.13575744628906 462.28985595703125 C 233.84033203125 459.5915222167969 236.47103881835938 503.7906494140625 219.11289978027344 519.2366333007812" stroke-width="5.870535850524902" fill="none" stroke="rgb(0, 0, 0)" stroke-opacity="1.0" stroke-linecap="round" stroke-linejoin="round"/>
    <path d="M 124.57567596435547 580.842529296875 C 143.01605224609375 592.3822021484375 148.09603881835938 586.5472412109375 185.93881225585938 589.550048828125" stroke-width="5.870535850524902" fill="none" stroke="rgb(0, 0, 0)" stroke-opacity="1.0" stroke-linecap="round" stroke-linejoin="round"/>
    <path d="M 104.2136459350586 567.536376953125 C 124.40255737304688 572.3719482421875 124.16323852539062 572.84033203125 131.13888549804688 578.283447265625" stroke-width="5.870535850524902" fill="none" stroke="rgb(0, 0, 0)" stroke-opacity="1.0" stroke-linecap="round" stroke-linejoin="round"/>
    <path d="M 104.0967788696289 294.49774169921875 C 107.41065216064453 221.507080078125 120.87864685058594 194.70797729492188 142.1960906982422 191.18215942382812" stroke-width="6.941964149475098" fill="none" stroke="rgb(0, 0, 0)" stroke-opacity="1.0" stroke-linecap="round" stroke-linejoin="round"/>
    <path d="M 152.8407745361328 411.8623962402344 C 247.53416442871094 408.1220397949219 252.34597778320312 412.7168884277344 276.4344177246094 409.8748779296875" stroke-width="6.941964149475098" fill="none" stroke="rgb(0, 0, 0)" stroke-opacity="1.0" stroke-linecap="round" stroke-linejoin="round"/>
    <path d="M 261.12432861328125 181.59901428222656 C 270.866943359375 181.4189453125 269.4229736328125 203.79124450683594 266.1238708496094 231.97268676757812" stroke-width="6.941964149475098" fill="none" stroke="rgb(0, 0, 0)" stroke-opacity="1.0" stroke-linecap="round" stroke-linejoin="round"/>
    <path d="M 151.96490478515625 136.0814208984375 C 127.11219024658203 151.45626831054688 138.44100952148438 184.2054443359375 137.84156799316406 197.48587036132812" stroke-width="6.941964149475098" fill="none" stroke="rgb(0, 0, 0)" stroke-opacity="1.0" stroke-linecap="round" stroke-linejoin="round"/>
    <path d="M 105.4468765258789 305.26959228515625 C 105.38565063476562 306.90692138671875 111.8667221069336 321.334716796875 143.1214599609375 286.51470947265625" stroke-width="6.941964149475098" fill="none" stroke="rgb(0, 0, 0)" stroke-opacity="1.0" stroke-linecap="round" stroke-linejoin="round"/>
    <path d="M 262.46075439453125 254.3197479248047 C 275.586181640625 273.31597900390625 271.1590881347656 288.3817138671875 273.43890380859375 308.7020263671875" stroke-width="6.941964149475098" fill="none" stroke="rgb(0, 0, 0)" stroke-opacity="1.0" stroke-linecap="round" stroke-linejoin="round"/>
    <path d="M 210.22128295898438 160.28045654296875 C 231.8324432373047 174.2674102783203 229.606201171875 170.21412658691406 257.797119140625 178.66224670410156" stroke-width="6.941964149475098" fill="none" stroke="rgb(0, 0, 0)" stroke-opacity="1.0" stroke-linecap="round" stroke-linejoin="round"/>
    <path d="M 135.5904083251953 158.74908447265625 C 142.97222900390625 124.94768524169922 186.13101196289062 132.00848388671875 197.70321655273438 142.415283203125" stroke-width="6.941964149475098" fill="none" stroke="rgb(0, 0, 0)" stroke-opacity="1.0" stroke-linecap="round" stroke-linejoin="round"/>
    <path d="M 137.78054809570312 232.89923095703125 C 152.7210693359375 284.37921142578125 137.39834594726562 288.48583984375 128.09909057617188 312.19476318359375" stroke-width="6.941964149475098" fill="none" stroke="rgb(0, 0, 0)" stroke-opacity="1.0" stroke-linecap="round" stroke-linejoin="round"/>
    <path d="M 147.7480926513672 332.09033203125 C 161.89730834960938 365.8448181152344 159.67213439941406 407.6361999511719 152.20924377441406 414.1730041503906" stroke-width="6.941964149475098" fill="none" stroke="rgb(0, 0, 0)" stroke-opacity="1.0" stroke-linecap="round" stroke-linejoin="round"/>
    <path d="M 149.29830932617188 141.31338500976562 C 128.60633850097656 178.5186767578125 140.31192016601562 189.0406036376953 144.5743408203125 210.44699096679688" stroke-width="6.941964149475098" fill="none" stroke="rgb(0, 0, 0)" stroke-opacity="1.0" stroke-linecap="round" stroke-linejoin="round"/>
    <path d="M 142.939453125 166.22964477539062 C 130.25274658203125 202.06878662109375 149.3304901123047 224.12069702148438 166.4519500732422 233.33038330078125" stroke-width="6.941964149475098" fill="none" stroke="rgb(0, 0, 0)" stroke-opacity="1.0" stroke-linecap="round" stroke-linejoin="round"/>
    <path d="M 184.1190185546875 136.90667724609375 C 214.18307495117188 147.255615234375 214.487548828125 159.03240966796875 224.64852905273438 180.59323120117188" stroke-width="6.941964149475098" fill="none" stroke="rgb(0, 0, 0)" stroke-opacity="1.0" stroke-linecap="round" stroke-linejoin="round"/>
    <path d="M 223.93350219726562 168.33993530273438 C 266.3052673339844 189.0963134765625 268.6361083984375 168.05438232421875 268.979736328125 205.48388671875" stroke-width="6.941964149475098" fill="none" stroke="rgb(0, 0, 0)" stroke-opacity="1.0" stroke-linecap="round" stroke-linejoin="round"/>
    <path d="M 174.36898803710938 313.9306335449219 C 144.57131958007812 332.4342041015625 130.02566528320312 342.5413818359375 161.18397521972656 357.6920166015625" stroke-width="6.941964149475098" fill="none" stroke="rgb(0, 0, 0)" stroke-opacity="1.0" stroke-linecap="round" stroke-linejoin="round"/>
    <path d="M 136.63284301757812 194.94027709960938 C 148.476806640625 227.9100341796875 149.173583984375 246.34698486328125 180.7935028076172 265.2391357421875" stroke-width="6.941964149475098" fill="none" stroke="rgb(0, 0, 0)" stroke-opacity="1.0" stroke-linecap="round" stroke-linejoin="round"/>
    <path d="M 236.82217407226562 239.55027770996094 C 266.1647033691406 233.4970703125 256.93255615234375 242.42816162109375 269.2374572753906 252.30369567871094" stroke-width="6.941964149475098" fill="none" stroke="rgb(0, 0, 0)" stroke-opacity="1.0" stroke-linecap="round" stroke-linejoin="round"/>
    <path d="M 268.7535400390625 360.1127624511719 C 270.366943359375 381.1946716308594 260.3072509765625 389.1465759277344 273.5181579589844 412.4938659667969" stroke-width="6.941964149475098" fill="none" stroke="rgb(0, 0, 0)" stroke-opacity="1.0" stroke-linecap="round" stroke-linejoin="round"/>
    <path d="M 216.66700744628906 173.14962768554688 C 224.52957153320312 207.72955322265625 213.88389587402344 205.3916015625 216.93048095703125 224.56399536132812" stroke-width="6.941964149475098" fill="none" stroke="rgb(0, 0, 0)" stroke-opacity="1.0" stroke-linecap="round" stroke-linejoin="round"/>
    <path d="M 170.7604522705078 190.58535766601562 C 189.92987060546875 181.5537872314453 189.23500061035156 194.26895141601562 194.4055938720703 194.39630126953125" stroke-width="6.941964149475098" fill="none" stroke="rgb(0, 0, 0)" stroke-opacity="1.0" stroke-linecap="round" stroke-linejoin="round"/>
    <path d="M 214.3163299560547 169.71038818359375 C 224.54812622070312 205.08901977539062 201.11363220214844 220.93896484375 204.83436584472656 237.07278442382812" stroke-width="6.941964149475098" fill="none" stroke="rgb(0, 0, 0)" stroke-opacity="1.0" stroke-linecap="round" stroke-linejoin="round"/>
    <path d="M 205.8799591064453 218.58203125 C 205.1915283203125 244.01852416992188 189.4351043701172 256.2222900390625 178.2013702392578 259.23638916015625" stroke-width="6.941964149475098" fill="none" stroke="rgb(0, 0, 0)" stroke-opacity="1.0" stroke-linecap="round" stroke-linejoin="round"/>
    <path d="M 183.32669067382812 200.15762329101562 C 202.95660400390625 199.51763916015625 188.9127197265625 216.61952209472656 203.0336456298828 219.43507385253906" stroke-width="6.941964149475098" fill="none" stroke="rgb(0, 0, 0)" stroke-opacity="1.0" stroke-linecap="round" stroke-linejoin="round"/>
    <path d="M 151.6495361328125 224.90028381347656 C 165.52586364746094 233.7946319580078 163.17120361328125 251.83995056152344 191.2352752685547 246.30767822265625" stroke-width="6.941964149475098" fill="none" stroke="rgb(0, 0, 0)" stroke-opacity="1.0" stroke-linecap="round" stroke-linejoin="round"/>
    <path d="M 169.22035217285156 264.69061279296875 C 200.19361877441406 286.9674987792969 183.73086547851562 283.4805908203125 204.23789978027344 313.3103332519531" stroke-width="6.941964149475098" fill="none" stroke="rgb(0, 0, 0)" stroke-opacity="1.0" stroke-linecap="round" stroke-linejoin="round"/>
    <path d="M 186.98167419433594 292.519287109375 C 206.88897705078125 309.66998291015625 197.82803344726562 316.390869140625 209.17506408691406 316.23699951171875" stroke-width="6.941964149475098" fill="none" stroke="rgb(0, 0, 0)" stroke-opacity="1.0" stroke-linecap="round" stroke-linejoin="round"/>
    <path d="M 221.4831085205078 249.88681030273438 C 214.57791137695312 265.9310607910156 206.3399200439453 298.76873779296875 210.89991760253906 318.45989990234375" stroke-width="6.941964149475098" fill="none" stroke="rgb(0, 0, 0)" stroke-opacity="1.0" stroke-linecap="round" stroke-linejoin="round"/>
    <path d="M 224.46946716308594 254.8904266357422 C 245.84896850585938 239.62451171875 261.248046875 243.7763671875 268.9556579589844 255.7159881591797" stroke-width="6.941964149475098" fill="none" stroke="rgb(0, 0, 0)" stroke-opacity="1.0" stroke-linecap="round" stroke-linejoin="round"/>
    <path d="M 148.9728546142578 302.1337890625 C 197.17933654785156 312.32086181640625 194.1370391845703 318.42205810546875 205.4536590576172 309.72991943359375" stroke-width="6.941964149475098" fill="none" stroke="rgb(0, 0, 0)" stroke-opacity="1.0" stroke-linecap="round" stroke-linejoin="round"/>
    <path d="M 217.2819366455078 304.94580078125 C 223.57797241210938 327.9713439941406 229.33543395996094 351.67327880859375 236.6807098388672 379.0047302246094" stroke-width="6.941964149475098" fill="none" stroke="rgb(0, 0, 0)" stroke-opacity="1.0" stroke-linecap="round" stroke-linejoin="round"/>
    <path d="M 269.9020690917969 312.51470947265625 C 275.723876953125 341.3463134765625 268.6690368652344 352.04852294921875 271.19232177734375 385.3572082519531" stroke-width="6.941964149475098" fill="none" stroke="rgb(0, 0, 0)" stroke-opacity="1.0" stroke-linecap="round" stroke-linejoin="round"/>
    <path d="M 269.7139892578125 304.99884033203125 C 275.0589599609375 333.491943359375 270.7620544433594 343.6942138671875 271.46820068359375 374.7686462402344" stroke-width="6.941964149475098" fill="none" stroke="rgb(0, 0, 0)" stroke-opacity="1.0" stroke-linecap="round" stroke-linejoin="round"/>
  </g>
</svg>
